<svg width="48" height="32" viewBox="0 0 48 32" fill="none" xmlns="http://www.w3.org/2000/svg">
<path d="M43.9381 31.9861C41.7235 31.9861 40.4103 30.8528 40.3097 29.2207H42.427C42.427 29.7648 42.7285 30.489 44.0386 30.534C44.9465 30.534 45.4489 29.99 45.4489 29.5811C45.3484 28.9469 44.541 28.9019 43.737 28.7633C42.8291 28.6316 42.1255 28.4479 41.6197 28.2227C40.9162 27.8588 40.5107 27.086 40.5107 26.2717C40.5107 24.8196 41.7235 23.6863 43.8375 23.6863C45.8544 23.6863 47.1644 24.7296 47.2613 26.3167H45.248C45.248 25.9111 45.1474 25.2286 43.9379 25.2286C43.1305 25.2286 42.6281 25.3637 42.5276 25.9527C42.5276 26.7707 44.2395 26.7255 45.5495 27.0409C46.7589 27.3597 47.5662 28.1291 47.5662 29.2207C47.5662 31.2168 45.9548 31.9861 43.9381 31.9861ZM5.354 18.5939L12.3057 14.5566L16.0344 20.954H6.66394" fill="#B3B3B3"/>
<path fill-rule="evenodd" clip-rule="evenodd" d="M20.9893 23.671V31.7454H18.9551V23.671H20.9893Z" fill="#B3B3B3"/>
<path d="M2.12741 27.8275C2.12741 29.0958 3.23626 30.139 4.44218 30.139C5.75559 30.139 6.76057 29.0958 6.76057 27.8275C6.76057 26.6043 5.75559 25.5161 4.44218 25.5161C3.23626 25.5161 2.12741 26.6043 2.12741 27.8275ZM4.34179 32C2.12725 32 0.214355 30.139 0.214355 27.8275C0.214355 25.5161 2.12741 23.7003 4.34179 23.7003C5.2497 23.7003 6.05707 23.929 6.76057 24.4244V23.7902H8.77749V31.8162H6.76073V31.3173C6.15777 31.7712 5.2497 32 4.34179 32ZM31.2485 20.9521L21.5765 4.08229L28.5281 0L40.619 20.9521M11.3974 27.8275C11.3974 29.0958 12.406 30.139 13.7158 30.139C14.9217 30.139 16.0342 29.0958 16.0342 27.8275C16.0342 26.6043 14.9217 25.5161 13.7158 25.5161C12.4058 25.5161 11.3974 26.6043 11.3974 27.8275ZM13.6152 32C11.2968 32 9.48447 30.139 9.48447 27.8275C9.48447 25.5161 11.2968 23.7003 13.6152 23.7003C14.5197 23.7003 15.3272 23.929 16.0342 24.4244V21.0248H18.0476V31.8162H16.034V31.3173C15.327 31.7712 14.5198 32 13.6152 32ZM13.5159 11.3835L20.568 7.39478L28.3273 20.9516H20.9702V22.9477H18.9566V20.9516M46.2596 23.0105C45.7538 23.0105 45.2513 22.5565 45.2513 22.0124C45.2513 21.4684 45.7538 21.0144 46.2596 21.0144C46.8626 21.0144 47.2683 21.4685 47.2683 22.0124C47.2683 22.5564 46.8626 23.0105 46.2596 23.0105ZM46.2596 21.1532C45.7538 21.1532 45.4523 21.5585 45.4523 22.0124C45.4523 22.4664 45.7538 22.8754 46.2596 22.8754C46.7622 22.8754 47.0637 22.4666 47.0637 22.0124C47.0637 21.5583 46.7622 21.1532 46.2596 21.1532Z" fill="#B3B3B3"/>
<path d="M46.4677 22.56L46.2666 22.1061H46.0657V22.56H45.9132V21.4719H46.3672C46.4677 21.4719 46.6687 21.6106 46.6687 21.7907C46.6687 21.9708 46.5681 22.0611 46.4677 22.1061L46.6687 22.56M46.2666 21.6106H46.0657V21.971H46.2666C46.4677 21.971 46.4677 21.926 46.4677 21.7907C46.4677 21.6973 46.4677 21.6106 46.2666 21.6106ZM32.9524 27.8276C32.9524 29.0958 33.961 30.139 35.2708 30.139C36.4802 30.139 37.5857 29.0958 37.5857 27.8276C37.5857 26.6043 36.4802 25.5161 35.2708 25.5161C33.9609 25.5161 32.9524 26.6043 32.9524 27.8276ZM35.167 32C32.852 32 31.0395 30.139 31.0395 27.8276C31.0395 25.5161 32.852 23.7003 35.1668 23.7003C36.0749 23.7003 36.8822 23.929 37.5857 24.4245V23.7902H39.5021V31.8162H37.5859V31.3173C36.8822 31.7713 36.075 32 35.167 32ZM23.6894 27.8276C23.6894 29.0958 24.7983 30.139 26.0077 30.139C27.3178 30.139 28.3261 29.0958 28.3261 27.8276C28.3261 26.6043 27.3176 25.5161 26.0077 25.5161C24.7983 25.5161 23.6894 26.6043 23.6894 27.8276ZM28.3261 21.0248H30.3395V31.8162H28.3261V31.3173C27.7196 31.7713 26.9123 32 26.0077 32C23.6894 32 21.7764 30.139 21.7764 27.8276C21.7764 25.5161 23.6894 23.7003 26.0077 23.7003C26.9121 23.7003 27.7196 23.929 28.3261 24.4245V21.0248Z" fill="#B3B3B3"/>
</svg>
