<svg width="64" height="26" viewBox="0 0 64 26" fill="none" xmlns="http://www.w3.org/2000/svg">
<path d="M18.6995 25.879H11.8011V16.0041H7.32283V25.879H0.240605L0.214355 0.426309H7.32283V9.8961H11.8011V0.426309H18.6995V25.879ZM50.3123 26C57.426 25.9947 63.2141 20.0735 63.2141 12.9422C63.2246 11.2408 62.8981 9.55427 62.2535 7.9802C61.609 6.40614 60.6593 4.97584 59.4593 3.77215C58.2594 2.56845 56.833 1.61527 55.2629 0.967801C53.6928 0.320331 52.0101 -0.00856125 50.3123 0.000169365C43.2064 -0.00509163 39.5761 5.23749 38.6783 7.35241C38.6862 4.1774 35.5625 0.42894 31.9059 0.423679H20.138V25.8711L31.1131 25.8737C35.5388 25.8737 38.6888 22.0332 38.6941 18.7372C39.7047 20.81 43.2091 26.0026 50.3149 25.9974L50.3123 26ZM30.1917 15.6464C31.2076 15.6464 32.0082 16.6512 32.0082 17.7955C32.0082 18.9397 31.2076 19.9446 30.1917 19.9446H26.7005V15.6464H30.1917ZM30.2049 6.08977C31.2207 6.08977 32.0214 7.09462 32.0214 8.23888C32.0214 9.38578 31.2207 10.3906 30.2049 10.3906H26.7136V6.08977H30.2049ZM34.8511 12.9475C35.6517 12.8449 36.9852 11.9295 37.4551 11.3429C37.2897 12.0689 37.2766 14.168 37.4708 14.894C36.9353 14.0681 35.6648 13.0501 34.8511 12.9475ZM43.8548 12.9475C43.8548 12.097 44.022 11.2548 44.3468 10.4691C44.6715 9.68337 45.1476 8.96943 45.7477 8.36805C46.3478 7.76667 47.0603 7.28963 47.8444 6.96417C48.6285 6.6387 49.4688 6.47119 50.3175 6.47119C51.1662 6.47119 52.0066 6.6387 52.7907 6.96417C53.5748 7.28963 54.2873 7.76667 54.8874 8.36805C55.4875 8.96943 55.9635 9.68337 56.2883 10.4691C56.6131 11.2548 56.7803 12.097 56.7803 12.9475C56.7803 14.6654 56.0992 16.313 54.887 17.5278C53.6748 18.7426 52.0306 19.4251 50.3162 19.4251C48.6019 19.4251 46.9577 18.7426 45.7455 17.5278C44.5332 16.313 43.8548 14.6654 43.8548 12.9475ZM50.3175 18.0401C51.6654 18.0401 52.958 17.5036 53.911 16.5485C54.8641 15.5935 55.3995 14.2981 55.3995 12.9475C55.3995 11.5968 54.8641 10.3015 53.911 9.34643C52.958 8.39138 51.6654 7.85483 50.3175 7.85483C48.9697 7.85483 47.6771 8.39138 46.724 9.34643C45.771 10.3015 45.2356 11.5968 45.2356 12.9475C45.2356 14.2981 45.771 15.5935 46.724 16.5485C47.6771 17.5036 48.9697 18.0401 50.3175 18.0401Z" fill="#B3B3B3"/>
</svg>
