<svg width="26" height="26" viewBox="0 0 26 26" fill="none" xmlns="http://www.w3.org/2000/svg">
<path d="M12.9999 9.93572C11.307 9.93572 9.93564 11.3076 9.93564 13C9.93564 14.6928 11.3075 16.0643 12.9999 16.0643C14.6928 16.0643 16.0642 14.6924 16.0642 13C16.0642 11.3072 14.6923 9.93572 12.9999 9.93572ZM12.9999 7.89286C15.8195 7.89286 18.1071 10.1779 18.1071 13C18.1071 15.8197 15.822 18.1072 12.9999 18.1072C10.1803 18.1072 7.89278 15.8221 7.89278 13C7.89278 10.1804 10.1778 7.89286 12.9999 7.89286ZM19.6392 7.63664C19.6392 8.34154 19.0664 8.91344 18.3624 8.91344C17.6575 8.91344 17.0857 8.34066 17.0857 7.63664C17.0857 6.93262 17.6584 6.36072 18.3624 6.36072C19.0655 6.35983 19.6392 6.93262 19.6392 7.63664ZM12.9999 4.82858C10.4724 4.82858 10.0605 4.83527 8.88489 4.88762C8.08396 4.92522 7.54708 5.03294 7.04825 5.2266C6.60495 5.39853 6.28517 5.60382 5.94445 5.94454C5.60243 6.28657 5.3975 6.60549 5.22626 7.04899C5.03215 7.54897 4.92446 8.08501 4.88754 8.88482C4.83468 10.0125 4.8285 10.4067 4.8285 13C4.8285 15.5275 4.83519 15.9395 4.88753 17.1149C4.92515 17.9155 5.03301 18.4532 5.2262 18.9509C5.39858 19.3948 5.6043 19.7153 5.94337 20.0544C6.28674 20.3973 6.60661 20.6029 7.04591 20.7725C7.55082 20.9677 8.08737 21.0755 8.88473 21.1124C10.0125 21.1652 10.4066 21.1714 12.9999 21.1714C15.5275 21.1714 15.9394 21.1647 17.1149 21.1124C17.9137 21.0749 18.4518 20.9667 18.9508 20.7737C19.3935 20.6018 19.715 20.3954 20.0543 20.0565C20.3977 19.7126 20.6029 19.3935 20.7727 18.9532C20.9674 18.4501 21.0755 17.9129 21.1123 17.1152C21.1651 15.9875 21.1714 15.5933 21.1714 13C21.1714 10.4725 21.1646 10.0606 21.1123 8.88505C21.0747 8.08598 20.9666 7.5471 20.7733 7.04833C20.6018 6.60625 20.3958 6.28549 20.0554 5.94454C19.7128 5.60195 19.3947 5.39744 18.9509 5.22634C18.4513 5.03239 17.9144 4.92455 17.1151 4.88763C15.9874 4.83476 15.5932 4.82858 12.9999 4.82858ZM12.9999 2.78572C15.7748 2.78572 16.1212 2.79594 17.2108 2.84701C18.2977 2.89723 19.0391 3.06917 19.6903 3.32197C20.3635 3.58159 20.9321 3.93227 21.4999 4.50002C22.0667 5.06777 22.4175 5.63806 22.678 6.30965C22.9299 6.95996 23.1019 7.70219 23.1529 8.78917C23.2015 9.8787 23.2142 10.2251 23.2142 13C23.2142 15.7749 23.204 16.1213 23.1529 17.2108C23.1027 18.2979 22.9299 19.0392 22.678 19.6904C22.4183 20.3637 22.0667 20.9322 21.4999 21.5C20.9321 22.0669 20.361 22.4176 19.6903 22.678C19.0391 22.93 18.2977 23.1019 17.2108 23.153C16.1212 23.2015 15.7748 23.2143 12.9999 23.2143C10.225 23.2143 9.8786 23.2041 8.78909 23.153C7.70211 23.1028 6.96158 22.93 6.30957 22.678C5.63712 22.4184 5.06768 22.0669 4.49994 21.5C3.9322 20.9322 3.58236 20.3611 3.32189 19.6904C3.06909 19.0392 2.898 18.2979 2.84693 17.2108C2.79841 16.1213 2.78564 15.7749 2.78564 13C2.78564 10.2251 2.79586 9.8787 2.84693 8.78917C2.89714 7.70135 3.06909 6.96081 3.32189 6.30965C3.5815 5.63721 3.9322 5.06777 4.49994 4.50002C5.06768 3.93227 5.63798 3.58244 6.30957 3.32197C6.96073 3.06917 7.70127 2.89808 8.78909 2.84701C9.8786 2.79849 10.225 2.78572 12.9999 2.78572Z" fill="#1D0A5B"/>
</svg>
