<svg width="28" height="28" viewBox="0 0 28 28" fill="none" xmlns="http://www.w3.org/2000/svg">
<path d="M14 10.7C12.1769 10.7 10.7 12.1774 10.7 14C10.7 15.823 12.1774 17.3 14 17.3C15.823 17.3 17.3 15.8226 17.3 14C17.3 12.177 15.8226 10.7 14 10.7ZM14 8.5C17.0364 8.5 19.5 10.9608 19.5 14C19.5 17.0366 17.0392 19.5 14 19.5C10.9635 19.5 8.49999 17.0392 8.49999 14C8.49999 10.9635 10.9608 8.5 14 8.5ZM21.15 8.22406C21.15 8.98319 20.5331 9.59909 19.775 9.59909C19.0159 9.59909 18.4 8.98224 18.4 8.22406C18.4 7.46589 19.0168 6.85 19.775 6.85C20.5321 6.84904 21.15 7.46589 21.15 8.22406ZM14 5.2C11.2781 5.2 10.8344 5.2072 9.56841 5.26358C8.70588 5.30407 8.1277 5.42008 7.59049 5.62864C7.11309 5.81379 6.76872 6.03488 6.40179 6.4018C6.03346 6.77014 5.81276 7.11359 5.62836 7.59121C5.41932 8.12965 5.30334 8.70692 5.26358 9.56826C5.20665 10.7827 5.2 11.2072 5.2 14C5.2 16.722 5.2072 17.1656 5.26357 18.4315C5.30408 19.2936 5.42024 19.8727 5.62829 20.4086C5.81393 20.8867 6.03547 21.2318 6.40062 21.597C6.77041 21.9663 7.11489 22.1877 7.58798 22.3703C8.13173 22.5806 8.70954 22.6967 9.56825 22.7364C10.7827 22.7933 11.2071 22.8 14 22.8C16.722 22.8 17.1656 22.7927 18.4315 22.7364C19.2918 22.6961 19.8713 22.5796 20.4086 22.3717C20.8853 22.1865 21.2316 21.9642 21.597 21.5994C21.9669 21.229 22.1879 20.8853 22.3707 20.4111C22.5803 19.8694 22.6967 19.2908 22.7364 18.4318C22.7933 17.2173 22.8 16.7928 22.8 14C22.8 11.2781 22.7927 10.8344 22.7364 9.56851C22.6959 8.70797 22.5795 8.12764 22.3713 7.5905C22.1866 7.11442 21.9648 6.76898 21.5981 6.4018C21.2292 6.03286 20.8867 5.81262 20.4087 5.62836C19.8707 5.41949 19.2925 5.30336 18.4317 5.26359C17.2173 5.20665 16.7928 5.2 14 5.2ZM14 3C16.9883 3 17.3614 3.011 18.5348 3.066C19.7053 3.12009 20.5038 3.30525 21.205 3.5775C21.93 3.85709 22.5424 4.23475 23.1538 4.84616C23.7643 5.45759 24.142 6.07175 24.4225 6.795C24.6938 7.49534 24.879 8.29466 24.934 9.46525C24.9862 10.6386 25 11.0117 25 14C25 16.9884 24.989 17.3614 24.934 18.5347C24.8799 19.7054 24.6938 20.5037 24.4225 21.205C24.1429 21.9301 23.7643 22.5424 23.1538 23.1539C22.5424 23.7644 21.9273 24.142 21.205 24.4225C20.5038 24.6939 19.7053 24.879 18.5348 24.934C17.3614 24.9863 16.9883 25 14 25C11.0117 25 10.6386 24.989 9.46524 24.934C8.29466 24.8799 7.49716 24.6939 6.795 24.4225C6.07082 24.1429 5.45757 23.7644 4.84616 23.1539C4.23475 22.5424 3.858 21.9274 3.5775 21.205C3.30525 20.5037 3.121 19.7054 3.066 18.5347C3.01375 17.3614 3 16.9884 3 14C3 11.0117 3.011 10.6386 3.066 9.46525C3.12008 8.29375 3.30525 7.49625 3.5775 6.795C3.85708 6.07084 4.23475 5.45759 4.84616 4.84616C5.45757 4.23475 6.07175 3.858 6.795 3.5775C7.49625 3.30525 8.29375 3.121 9.46524 3.066C10.6386 3.01375 11.0117 3 14 3Z" fill="white"/>
</svg>
