<svg width="26" height="26" viewBox="0 0 26 26" fill="none" xmlns="http://www.w3.org/2000/svg">
<path d="M4.33431 3.25H21.6677C22.266 3.25 22.751 3.73503 22.751 4.33333V21.6667C22.751 22.265 22.266 22.75 21.6677 22.75H4.33431C3.736 22.75 3.25098 22.265 3.25098 21.6667V4.33333C3.25098 3.73503 3.736 3.25 4.33431 3.25ZM5.41764 5.41667V20.5833H20.5843V5.41667H5.41764ZM8.12598 9.75C7.22851 9.75 6.50098 9.02247 6.50098 8.125C6.50098 7.22753 7.22851 6.5 8.12598 6.5C9.02343 6.5 9.75098 7.22753 9.75098 8.125C9.75098 9.02247 9.02343 9.75 8.12598 9.75ZM7.04264 10.8333H9.20931V18.9583H7.04264V10.8333ZM13.001 11.2986C13.6341 10.6875 14.372 10.2917 15.1677 10.2917C17.4112 10.2917 18.9593 12.1105 18.9593 14.3542V18.9583H16.7927V14.3542C16.7927 13.3071 15.9439 12.4583 14.8968 12.4583C13.8498 12.4583 13.001 13.3071 13.001 14.3542V18.9583H10.8343V10.8333H13.001V11.2986Z" fill="#1D0A5B"/>
</svg>
