<svg width="28" height="28" viewBox="0 0 28 28" fill="none" xmlns="http://www.w3.org/2000/svg">
<path d="M4.66764 3.5H23.3343C23.9787 3.5 24.501 4.02234 24.501 4.66667V23.3333C24.501 23.9777 23.9787 24.5 23.3343 24.5H4.66764C4.0233 24.5 3.50098 23.9777 3.50098 23.3333V4.66667C3.50098 4.02234 4.0233 3.5 4.66764 3.5ZM5.83431 5.83333V22.1667H22.1677V5.83333H5.83431ZM8.75098 10.5C7.78447 10.5 7.00098 9.7165 7.00098 8.75C7.00098 7.7835 7.78447 7 8.75098 7C9.71747 7 10.501 7.7835 10.501 8.75C10.501 9.7165 9.71747 10.5 8.75098 10.5ZM7.58431 11.6667H9.91764V20.4167H7.58431V11.6667ZM14.001 12.1677C14.6828 11.5096 15.4774 11.0833 16.3343 11.0833C18.7505 11.0833 20.4177 13.042 20.4177 15.4583V20.4167H18.0843V15.4583C18.0843 14.3307 17.1702 13.4167 16.0427 13.4167C14.9151 13.4167 14.001 14.3307 14.001 15.4583V20.4167H11.6677V11.6667H14.001V12.1677Z" fill="white"/>
</svg>
