<svg width="113" height="48" viewBox="0 0 113 48" fill="none" xmlns="http://www.w3.org/2000/svg">
<path d="M17.1414 13.979H13.0866C12.6858 13.239 12.1323 12.6772 11.4259 12.2936C10.7229 11.9066 9.9011 11.7131 8.96041 11.7131C7.92122 11.7131 6.9975 11.9473 6.18925 12.4158C5.38439 12.8876 4.75613 13.5598 4.30446 14.4322C3.84939 15.3047 3.62186 16.3112 3.62186 17.4518C3.62186 18.6264 3.85279 19.6481 4.31465 20.5172C4.7765 21.3896 5.41835 22.0618 6.24019 22.5336C7.06203 23.0021 8.01971 23.2363 9.11323 23.2363C10.4547 23.2363 11.5533 22.8799 12.4091 22.167C13.2649 21.4541 13.8269 20.4612 14.0952 19.1882H8.05367V16.4945H17.5693V19.565C17.335 20.7871 16.8307 21.9192 16.0564 22.9614C15.2855 24.0001 14.2922 24.8335 13.0764 25.4615C11.8606 26.093 10.4971 26.4087 8.98588 26.4087C7.29126 26.4087 5.75965 26.0268 4.39106 25.263C3.02246 24.4991 1.94932 23.4383 1.17163 22.0804C0.390543 20.7226 0 19.1797 0 17.4518C0 15.7239 0.390543 14.1759 1.17163 12.8079C1.94932 11.4398 3.02246 10.3756 4.39106 9.61517C5.75965 8.85137 7.28277 8.46947 8.96041 8.46947C10.9403 8.46947 12.6604 8.95151 14.1207 9.9156C15.581 10.8797 16.5879 12.2342 17.1414 13.979Z" fill="#1D0A5B"/>
<path d="M23.131 14.4831C23.5827 13.7431 24.1736 13.1643 24.9038 12.7468C25.6339 12.3258 26.4693 12.1154 27.41 12.1154V15.8173H26.4778C25.3707 15.8173 24.5353 16.0769 23.9715 16.5963C23.4112 17.1157 23.131 18.0204 23.131 19.3104V26.2559H19.606V12.319H23.131V14.4831Z" fill="#1D0A5B"/>
<path d="M36.5163 26.4799C35.1749 26.4799 33.9676 26.1829 32.8945 25.5888C31.8213 24.9948 30.9774 24.1529 30.3627 23.0632C29.7514 21.9701 29.4458 20.7107 29.4458 19.2849C29.4458 17.8591 29.7599 16.6014 30.3882 15.5117C31.0199 14.422 31.8807 13.5802 32.9709 12.9861C34.061 12.3886 35.2768 12.0899 36.6182 12.0899C37.9596 12.0899 39.1771 12.3886 40.2706 12.9861C41.3607 13.5802 42.2199 14.422 42.8482 15.5117C43.4765 16.6014 43.7906 17.8591 43.7906 19.2849C43.7906 20.7107 43.468 21.9701 42.8227 23.0632C42.1775 24.1529 41.3047 24.9948 40.2044 25.5888C39.1075 26.1829 37.8781 26.4799 36.5163 26.4799ZM36.5163 23.4145C37.1548 23.4145 37.7559 23.2584 38.3196 22.9461C38.88 22.6372 39.3282 22.1721 39.6644 21.5509C40.0006 20.9296 40.1687 20.1743 40.1687 19.2849C40.1687 17.961 39.8207 16.9426 39.1245 16.2297C38.4283 15.5168 37.5759 15.1604 36.5673 15.1604C35.562 15.1604 34.7198 15.5168 34.0406 16.2297C33.3614 16.9426 33.0218 17.961 33.0218 19.2849C33.0218 20.6122 33.3529 21.6323 34.0151 22.3452C34.6774 23.0581 35.5111 23.4145 36.5163 23.4145Z" fill="#1D0A5B"/>
<path d="M63.3448 12.319H66.7222L62.6419 26.2559H58.8417L56.2998 16.5199L53.7579 26.2559H49.9322L45.8315 12.319H49.4025L51.868 22.9359L54.5372 12.319H58.261L60.8793 22.9104L63.3448 12.319Z" fill="#1D0A5B"/>
<path d="M77.089 15.2113H73.9664V21.9531C73.9664 22.4216 74.0801 22.7611 74.3077 22.9715C74.5352 23.182 74.9172 23.2872 75.4538 23.2872H77.089V26.2559H74.8731C71.905 26.2559 70.4209 24.8132 70.4209 21.9277V15.2113H68.7603V12.319H70.4209V8.87173H73.9664V12.319H77.089V15.2113Z" fill="#1D0A5B"/>
<path d="M86.9764 12.1153C88.0359 12.1153 88.9766 12.3462 89.7985 12.8079C90.6203 13.2695 91.2622 13.9485 91.724 14.8447C92.1859 15.7442 92.4168 16.8221 92.4168 18.0781V26.2559H88.8917V18.5567C88.8917 17.4501 88.615 16.5997 88.0614 16.0056C87.5078 15.4082 86.7522 15.1094 85.7946 15.1094C84.8233 15.1094 84.0558 15.4082 83.4921 16.0056C82.9317 16.5997 82.6515 17.4501 82.6515 18.5567V26.2559H79.1265V7.63945H82.6515V14.0554C83.1032 13.4511 83.706 12.9759 84.4599 12.6296C85.2172 12.2868 86.056 12.1153 86.9764 12.1153Z" fill="#1D0A5B"/>
<path d="M94.4531 6.11042L112.863 0V34.1204L94.4531 28.0099V6.11042Z" fill="#1D0A5B"/>
<path d="M111.336 26.2559H107.281L103.481 20.344L100.032 26.2559H96.0588L101.596 17.4009L95.9824 8.6935H100.032L103.832 14.5799L107.256 8.6935H111.234L105.722 17.5231L111.336 26.2559Z" fill="white"/>
<path d="M112.818 36.1572H0.0439453V48H112.818V36.1572Z" fill="#1D0A5B"/>
<path d="M2.59082 46.8085V37.351H4.95914C6.4178 37.351 7.52782 37.7556 8.28921 38.5648C9.0506 39.3659 9.43129 40.5236 9.43129 42.0377C9.43129 42.7828 9.33512 43.4517 9.14277 44.0446C8.95042 44.6374 8.6659 45.1381 8.28921 45.5467C7.91252 45.9553 7.45168 46.2678 6.90669 46.4841C6.35368 46.7004 5.72453 46.8085 5.01925 46.8085H2.59082ZM3.79301 45.8231H4.87498C5.981 45.8231 6.81051 45.4947 7.36352 44.8377C7.91653 44.1728 8.19303 43.2394 8.19303 42.0377C8.19303 40.836 7.91653 39.9187 7.36352 39.2858C6.81051 38.6449 5.981 38.3244 4.87498 38.3244H3.79301V45.8231ZM19.8783 46.8085V37.351H25.3363V38.3605H21.0805V41.3287H24.6631V42.3502H21.0805V45.7871H25.4806V46.8085H19.8783ZM35.3506 42.0738C35.3506 41.3207 35.4547 40.6397 35.6631 40.0308C35.8795 39.422 36.172 38.9092 36.5407 38.4926C36.9174 38.068 37.3622 37.7436 37.8752 37.5193C38.3961 37.2869 38.9571 37.1708 39.5582 37.1708C40.1353 37.1708 40.6402 37.2909 41.073 37.5313C41.5058 37.7636 41.8624 38.036 42.1429 38.3484L41.4697 39.1055C41.2132 38.8411 40.9367 38.6288 40.6402 38.4686C40.3356 38.3084 39.979 38.2283 39.5702 38.2283C39.1214 38.2283 38.7127 38.3164 38.344 38.4926C37.9834 38.6689 37.6708 38.9253 37.4063 39.2617C37.1498 39.5902 36.9495 39.9908 36.8052 40.4635C36.6609 40.9361 36.5888 41.4649 36.5888 42.0497C36.5888 42.6426 36.6569 43.1793 36.7932 43.66C36.9374 44.1327 37.1338 44.5373 37.3823 44.8738C37.6307 45.2102 37.9353 45.4706 38.2959 45.6549C38.6566 45.8391 39.0653 45.9313 39.5222 45.9313C39.979 45.9313 40.3797 45.8391 40.7243 45.6549C41.061 45.4706 41.3856 45.2102 41.6981 44.8738L42.3713 45.6068C41.9947 46.0394 41.5739 46.3759 41.109 46.6163C40.6362 46.8566 40.0952 46.9768 39.4861 46.9768C38.893 46.9768 38.344 46.8686 37.8391 46.6523C37.3342 46.428 36.8974 46.1075 36.5287 45.6909C36.152 45.2743 35.8635 44.7616 35.6631 44.1527C35.4547 43.5359 35.3506 42.8429 35.3506 42.0738ZM55.6195 46.9768C55.0264 46.9768 54.4814 46.8646 53.9845 46.6403C53.4876 46.408 53.0628 46.0755 52.7102 45.6429C52.3495 45.2183 52.073 44.7015 51.8807 44.0926C51.6803 43.4838 51.5801 42.7988 51.5801 42.0377C51.5801 41.2766 51.6803 40.5957 51.8807 39.9948C52.073 39.3939 52.3495 38.8852 52.7102 38.4686C53.0628 38.052 53.4876 37.7316 53.9845 37.5072C54.4814 37.2829 55.0264 37.1708 55.6195 37.1708C56.2206 37.1708 56.7656 37.2869 57.2545 37.5193C57.7514 37.7436 58.1802 38.064 58.5408 38.4806C58.9015 38.8972 59.182 39.406 59.3824 40.0068C59.5747 40.6077 59.6709 41.2846 59.6709 42.0377C59.6709 42.7988 59.5747 43.4838 59.3824 44.0926C59.182 44.7015 58.9015 45.2183 58.5408 45.6429C58.1802 46.0755 57.7514 46.408 57.2545 46.6403C56.7656 46.8646 56.2206 46.9768 55.6195 46.9768ZM55.6195 45.9313C56.0443 45.9313 56.429 45.8391 56.7736 45.6549C57.1102 45.4706 57.4028 45.2102 57.6512 44.8738C57.8916 44.5293 58.08 44.1207 58.2162 43.648C58.3525 43.1673 58.4206 42.6306 58.4206 42.0377C58.4206 41.4529 58.3525 40.9241 58.2162 40.4514C58.08 39.9788 57.8916 39.5782 57.6512 39.2497C57.4028 38.9213 57.1102 38.6689 56.7736 38.4926C56.429 38.3164 56.0443 38.2283 55.6195 38.2283C55.1947 38.2283 54.814 38.3164 54.4774 38.4926C54.1328 38.6689 53.8403 38.9213 53.5998 39.2497C53.3514 39.5782 53.159 39.9788 53.0228 40.4514C52.8865 40.9241 52.8184 41.4529 52.8184 42.0377C52.8184 42.6306 52.8865 43.1673 53.0228 43.648C53.159 44.1207 53.3514 44.5293 53.5998 44.8738C53.8403 45.2102 54.1328 45.4706 54.4774 45.6549C54.814 45.8391 55.1947 45.9313 55.6195 45.9313ZM70.13 46.8085V37.351H72.4863C73.9529 37.351 75.067 37.7556 75.8284 38.5648C76.5817 39.3659 76.9584 40.5236 76.9584 42.0377C76.9584 42.7828 76.8622 43.4517 76.6699 44.0446C76.4775 44.6374 76.197 45.1381 75.8284 45.5467C75.4517 45.9553 74.9868 46.2678 74.4338 46.4841C73.8888 46.7004 73.2597 46.8085 72.5464 46.8085H70.13ZM71.3201 45.8231H72.4021C73.5081 45.8231 74.3376 45.4947 74.8906 44.8377C75.4436 44.1728 75.7202 43.2394 75.7202 42.0377C75.7202 40.836 75.4436 39.9187 74.8906 39.2858C74.3376 38.6449 73.5081 38.3244 72.4021 38.3244H71.3201V45.8231ZM87.4175 46.8085V37.351H92.8634V38.3605H88.6077V41.3287H92.2022V42.3502H88.6077V45.7871H93.0077V46.8085H87.4175ZM103.431 46.8085V37.351H105.799C107.258 37.351 108.368 37.7556 109.129 38.5648C109.89 39.3659 110.271 40.5236 110.271 42.0377C110.271 42.7828 110.175 43.4517 109.983 44.0446C109.79 44.6374 109.506 45.1381 109.129 45.5467C108.752 45.9553 108.292 46.2678 107.747 46.4841C107.194 46.7004 106.564 46.8085 105.859 46.8085H103.431ZM104.633 45.8231H105.715C106.821 45.8231 107.65 45.4947 108.203 44.8377C108.756 44.1728 109.033 43.2394 109.033 42.0377C109.033 40.836 108.756 39.9187 108.203 39.2858C107.65 38.6449 106.821 38.3244 105.715 38.3244H104.633V45.8231Z" fill="white"/>
</svg>
