<svg width="16" height="16" viewBox="0 0 16 16" fill="none" xmlns="http://www.w3.org/2000/svg">
<g clip-path="url(#clip0_51_5)">
<path fill-rule="evenodd" clip-rule="evenodd" d="M2.37881 12.5196C3.4662 12.5913 5.19624 12.6666 7.6665 12.6666C7.8782 12.6666 8.08444 12.6661 8.28534 12.665L8.17807 12.5457C7.3996 11.68 7.86134 10.296 9.0037 10.0711L10.3568 9.80465L11.0014 8.56195C11.5611 7.48281 13.1048 7.48278 13.6645 8.56195L14.309 9.80465L15.0563 9.95181C15.1174 9.09595 15.1665 7.95535 15.1665 6.49998C15.1665 4.68375 15.09 3.35775 15.0093 2.4636C14.9099 1.36338 14.0384 0.55179 12.9542 0.480303C11.8668 0.408613 10.1368 0.333313 7.6665 0.333313C5.19624 0.333312 3.4662 0.408613 2.37881 0.480303C1.29457 0.55179 0.423137 1.36338 0.323738 2.4636C0.242955 3.35775 0.166504 4.68375 0.166504 6.49998C0.166504 8.31621 0.242955 9.64218 0.323737 10.5363C0.423134 11.6366 1.29457 12.4482 2.37881 12.5196Z" fill="#1D0A5B" fill-opacity="0.16"/>
<path fill-rule="evenodd" clip-rule="evenodd" d="M15.1387 4.66503C14.5185 4.94853 13.4014 5.43493 12.2047 5.89989C11.3888 6.21686 10.5227 6.52913 9.73987 6.76313C8.97763 6.99096 8.22533 7.16646 7.6668 7.16646C7.10823 7.16646 6.35593 6.99096 5.59367 6.76309C4.8108 6.52909 3.9447 6.21683 3.12884 5.89986C1.93241 5.43499 0.815533 4.94873 0.195312 4.66523C0.212863 4.12186 0.237288 3.64356 0.264854 3.22733C0.294898 3.23778 0.324561 3.25051 0.353626 3.2656C0.57952 3.38279 2.0068 4.03346 3.6117 4.65703C4.41047 4.96736 5.24007 5.26579 5.97553 5.48563C6.73157 5.71163 7.3202 5.83313 7.6668 5.83313C8.01337 5.83313 8.602 5.71163 9.35803 5.48563C10.0935 5.26579 10.923 4.96739 11.7218 4.65706C13.3267 4.03349 14.754 3.38286 14.98 3.26557C15.0092 3.25043 15.039 3.23765 15.0692 3.22717C15.0967 3.64339 15.1212 4.12166 15.1387 4.66503Z" fill="#1D0A5B"/>
<path d="M11.8895 9.02236C12.0761 8.66263 12.5906 8.66263 12.7772 9.02236L13.6436 10.6927L15.4694 11.0522C15.8502 11.1272 16.0041 11.5885 15.7446 11.8771L14.4533 13.3132L14.6914 15.2419C14.7402 15.6378 14.3287 15.9286 13.9718 15.7505L12.3333 14.9327L10.6949 15.7505C10.338 15.9286 9.92647 15.6378 9.97534 15.2419L10.2133 13.3132L8.9221 11.8771C8.6626 11.5885 8.81654 11.1272 9.1973 11.0522L11.0231 10.6927L11.8895 9.02236Z" fill="#1D0A5B"/>
</g>
<defs>
<clipPath id="clip0_51_5">
<rect width="16" height="16" fill="white"/>
</clipPath>
</defs>
</svg>
