<svg width="105" height="28" viewBox="0 0 105 28" fill="none" xmlns="http://www.w3.org/2000/svg">
<path d="M69.3387 0V20.3957C71.8543 20.5128 74.3636 20.6543 76.8657 20.8212V25.1453C72.9103 24.8817 68.9383 24.6804 64.9498 24.5432V0H69.3387ZM104.214 0.00241629L98.4996 13.252L104.213 27.9962L104.207 27.999C102.542 27.7615 100.876 27.5374 99.2045 27.3225L95.996 19.0472L92.7569 26.5543C91.222 26.3848 89.6849 26.2245 88.1442 26.0742L93.7156 13.1634L88.6132 0.00241629H93.361L96.2177 7.36743L99.3943 0.00241629H104.214ZM49.8872 24.3288L49.8871 0.0023381H62.1384V4.36535H54.276V10.02H60.225V14.3441H54.276V24.3278L49.8872 24.3288ZM33.4993 4.36571L33.4991 0.00211066H47.0737V4.3654H42.4807V24.4472C41.0158 24.4856 39.5525 24.531 38.0921 24.5861V4.36571H33.4993ZM18.4957 25.8432V0.00284265H30.6859V4.36585H22.8838V10.2759C24.6763 10.253 27.2248 10.2269 28.8104 10.2308V14.5553C26.8257 14.5306 24.5853 14.5825 22.8838 14.5995V21.1461C25.4769 20.9422 28.0779 20.7637 30.6859 20.6131V24.9376C26.604 25.1728 22.5405 25.4757 18.4957 25.8432ZM9.88634 15.8467L9.88606 0.00213204H14.2749V26.2508C12.6705 26.4159 11.0692 26.5915 9.47062 26.7769L4.38859 12.1769V27.4022C2.92284 27.5931 1.46007 27.7922 0 28V0.00241629H4.17085L9.88634 15.8467ZM80.4864 25.4062V0.00244459H84.8753V25.7686C83.4142 25.6386 81.9517 25.5183 80.4864 25.4062Z" fill="#B3B3B3"/>
</svg>
