<svg width="66" height="40" viewBox="0 0 66 40" fill="none" xmlns="http://www.w3.org/2000/svg">
<g clip-path="url(#clip0_20_161)">
<path d="M31.8657 20.8484C31.9232 20.8595 31.9807 20.8698 32.038 20.8801L31.8657 20.8484ZM32.3356 20.9277C32.4025 20.9378 32.4694 20.9467 32.5365 20.9557L32.3356 20.9277ZM32.8324 20.988C32.8978 20.9941 32.9628 20.9997 33.0281 21.0048L32.8324 20.988ZM33.0981 21.0097C33.1533 21.0137 33.2085 21.0171 33.2637 21.02L33.0981 21.0097ZM33.344 21.0243C33.4094 21.0272 33.4748 21.0297 33.5401 21.0319L33.344 21.0243ZM33.6051 21.0326C33.7512 21.0366 33.8973 21.0367 34.0433 21.033L33.6051 21.0326ZM34.1131 21.0319C34.1812 21.0298 34.2492 21.0271 34.3173 21.0239L34.1131 21.0319ZM34.3815 21.0208C34.4405 21.0174 34.4986 21.0137 34.5572 21.0097L34.3815 21.0208ZM34.6182 21.0054C34.682 21.0005 34.746 20.9951 34.8095 20.989L34.6182 21.0054ZM35.1369 20.952C35.1861 20.9462 35.235 20.9397 35.2836 20.9319L35.1369 20.952ZM44.1075 4.23791C44.0546 4.20902 44.0003 4.18276 43.9448 4.15923L44.1075 4.23791ZM43.5745 4.04373C43.5065 4.02962 43.4379 4.01896 43.3688 4.01179L43.5745 4.04373ZM8.67947 11.2098C8.44283 10.9898 8.26301 10.7145 8.15573 10.4078C8.06844 10.1517 7.95539 9.83167 7.95539 9.55998C7.96097 8.33493 8.66678 7.425 9.42662 7.00373C9.77193 6.81247 9.90017 6.6812 9.95285 6.61381C9.92757 6.6025 9.9006 6.59552 9.87306 6.59317C8.83886 6.59317 8.30859 6.18612 8.04826 5.84158C7.80158 5.51886 7.67564 5.10285 7.67564 4.64789C7.67564 4.42683 7.70641 4.19545 7.76697 3.95882C8.05845 3.47113 8.33531 3.60513 8.50489 3.85462C8.61294 4.01082 9.35336 4.54252 10.2657 4.62685C10.9296 4.69073 11.2874 5.01969 11.4735 5.28242C11.6881 5.58664 11.7703 5.95318 11.7703 6.265C11.7703 6.39256 11.7561 6.51234 11.729 6.61888C11.629 7.02983 11.2016 7.40026 10.6064 7.87217L10.2687 8.15575C9.77443 8.59396 9.50237 9.08165 9.50237 9.49493C9.50237 9.59815 9.52025 9.69885 9.55467 9.79175C9.56889 9.82992 9.58601 9.86673 9.60619 9.90159C9.82711 10.2804 10.4514 10.518 11.357 10.197C11.7755 10.05 12.5813 9.53622 13.0733 9.04211C13.6523 8.45704 14.425 8.31662 15.169 8.25702C15.8143 8.20775 16.2115 8.04746 16.4913 7.72883C17.318 6.7852 18.1136 6.65257 18.8583 6.59648C19.1432 6.57428 19.1586 6.55363 19.1957 6.5028C19.6062 5.94909 20.0278 5.65597 20.4062 5.48536C20.6946 5.35546 20.958 5.29625 21.1737 5.24834L21.4356 5.18309L21.501 5.15972C21.9155 5.02456 22.2364 4.91257 23.0797 4.33529L23.1156 4.31231L23.1158 4.31192L23.1512 4.28952L23.1516 4.28933L23.1871 4.2681L23.1877 4.2679L23.2233 4.24726L23.2239 4.24707L23.2596 4.22798L23.2608 4.22759L23.2962 4.20889L23.2973 4.2085L23.3329 4.19097L23.3344 4.19058L23.3702 4.17383L23.3715 4.17306L23.4075 4.15786L23.409 4.15728L23.4448 4.14228L23.4467 4.14189L23.4827 4.12826L23.4844 4.12729L23.52 4.11443L23.5578 4.10158L23.5603 4.10099L23.5957 4.0895L23.598 4.08892L23.634 4.0784L23.6365 4.07782L23.672 4.06788L23.6747 4.0671L23.7105 4.05854L23.7138 4.05776L23.7489 4.04958L23.7518 4.0488L23.7878 4.0414L23.7909 4.04062L23.8264 4.034L23.8297 4.03341L23.8653 4.02737L23.8685 4.02698L23.9037 4.02173L23.9074 4.02095L23.9428 4.01686L23.9464 4.01608L23.9812 4.01218L23.9851 4.01199L24.0202 4.00868L24.0243 4.00829L24.0593 4.00575L24.0633 4.00536L24.0977 4.00322L24.1018 4.00303L24.1366 4.00147L24.1754 4.0003H24.1794L24.214 3.99991H24.2571L24.2913 4.0003L24.2954 4.0005H24.2994C24.324 4.00108 24.3486 4.00264 24.3732 4.004L24.4071 4.00614L24.4119 4.00653L24.4451 4.00907L24.4501 4.00946L24.4834 4.01277L24.4886 4.01335L24.5217 4.01666L24.5271 4.01705L24.5599 4.02114L24.5651 4.02192L24.5978 4.02601L24.6034 4.02698L24.6357 4.03185L24.6411 4.03283L24.6736 4.03789L24.6793 4.03906L24.7111 4.04471L24.717 4.04568L24.7485 4.05152L24.7543 4.05289C24.8047 4.06243 24.8543 4.07373 24.9029 4.0858L24.9335 4.09359L24.9397 4.09535C24.9887 4.1082 25.0371 4.12183 25.0848 4.13625L25.1131 4.1452L25.12 4.14735C25.2146 4.17753 25.3063 4.21162 25.3951 4.24765L25.4201 4.25817L25.4528 4.2718C27.2563 1.78995 30.1076 0.138558 33.3482 -0.0108246V-0.0116036C33.5078 -0.0188698 33.6675 -0.0225712 33.8272 -0.0227051C33.9328 -0.0226347 34.0383 -0.0210115 34.1438 -0.017836C34.1963 -0.0160832 34.2488 -0.0139408 34.3011 -0.0117984H34.3017C34.3536 -0.00926649 34.4061 -0.00673458 34.4582 -0.00342363C37.5941 0.187443 40.3558 1.78722 42.1345 4.17909C42.3884 4.0897 42.6651 4.02484 42.9475 4.00536L42.955 4.00498L42.9818 4.00322L43.0097 4.00186L43.0164 4.00147L43.0237 4.00128L43.051 4.0005L43.0583 4.00011L43.0856 3.99991L43.0929 3.99972L43.1208 3.99952H43.1275L43.1554 3.99972H43.1623L43.1967 4.0003L43.2248 4.00147L43.2309 4.00166L43.259 4.00303L43.2656 4.00342L43.2938 4.00536L43.2992 4.00575L43.3279 4.00809L43.3334 4.00848L43.3623 4.0114L43.3675 4.01199C43.4365 4.01914 43.5052 4.0298 43.5732 4.04393L43.6034 4.05016L43.6074 4.05113L43.6372 4.05834L43.6414 4.05912L43.6714 4.06691L43.6755 4.06788L43.7058 4.07606L43.7091 4.07704L43.7403 4.0858L43.7431 4.08678L43.7735 4.09632L43.777 4.09729L43.8079 4.10762L43.8106 4.10839L43.8441 4.12027L43.8754 4.13157L43.8773 4.13254L43.9085 4.14481L43.9104 4.14559L43.9421 4.15845L43.9441 4.15942C43.9989 4.18279 44.0531 4.2087 44.1067 4.23811L44.1077 4.23869L44.1394 4.25583L44.1398 4.25622L44.1715 4.27472L44.1721 4.27492L44.2038 4.29439L44.2042 4.29459L44.2355 4.31465L44.2673 4.33549C44.8483 4.73553 45.184 4.91179 45.4705 5.02689C45.5993 5.07889 45.7189 5.11804 45.8458 5.15991L45.9125 5.18329L46.1771 5.24853C46.3205 5.28047 46.4843 5.31728 46.6618 5.3761C47.1057 5.52256 47.6362 5.80691 48.1509 6.503C48.1882 6.55383 48.2047 6.57447 48.491 6.59668C49.2349 6.65296 50.0291 6.7854 50.8593 7.72902C51.137 8.04765 51.5323 8.20775 52.1773 8.25722C52.9258 8.31681 53.696 8.45704 54.2738 9.0423C54.7664 9.53641 55.5712 10.0502 55.9909 10.1972C56.8961 10.5182 57.5235 10.2806 57.7392 9.90179C57.7865 9.82194 57.8182 9.7341 57.8344 9.6412C57.8428 9.59298 57.8472 9.5441 57.8473 9.49512C57.8473 9.08184 57.5748 8.59416 57.0818 8.15594L57.0205 8.10433L56.741 7.87237C56.148 7.40046 55.7204 7.03002 55.6174 6.61907C55.5902 6.51254 55.5785 6.39276 55.5785 6.26519C55.5785 5.95318 55.6627 5.58683 55.8731 5.28262C56.0605 5.01988 56.4222 4.69093 57.0818 4.62705C57.999 4.54271 58.7353 4.01101 58.843 3.85481C59.0155 3.60532 59.2896 3.47133 59.58 3.95901C59.6415 4.19565 59.6723 4.42703 59.6723 4.64808C59.6723 5.10558 59.5463 5.51906 59.2998 5.84178C59.0378 6.18631 58.5092 6.59336 57.4733 6.59336C57.4514 6.59336 57.4208 6.60369 57.3952 6.61401C57.4466 6.68159 57.5748 6.81286 57.9209 7.00392C58.6807 7.42539 59.3873 8.33532 59.3937 9.56018C59.3937 9.83187 59.282 10.1517 59.1918 10.408C59.0976 10.6768 58.9482 10.9223 58.7534 11.1284C58.7271 11.1561 58.6996 11.1833 58.6705 11.21C58.2426 11.6128 57.5296 11.9289 56.3418 11.857C56.2167 11.8493 56.0919 11.8378 55.9675 11.8227C55.9367 12.4298 55.7723 13.1514 55.541 13.5154C55.4707 13.6297 55.4568 13.7065 55.4568 13.7441C55.4568 13.7598 55.4583 13.769 55.4583 13.7756C55.4656 13.7781 55.9854 14.0888 55.9854 14.0888L56.0692 14.1318C56.0692 14.1318 56.118 14.1552 56.1244 14.1605C56.1319 14.1577 56.3039 14.1499 56.3039 14.1499L56.338 14.1451L56.3414 14.1447C56.6664 14.1133 57.1626 13.9523 57.3735 14.549C57.4287 14.7073 57.4623 14.8452 57.4941 14.9674C57.5585 15.217 57.6137 15.4025 57.8294 15.5709C57.8294 15.5709 57.9361 15.4782 58.0572 15.3692C58.1508 15.2855 58.2425 15.1997 58.3324 15.1119C58.4827 14.9559 58.7609 15.0351 58.9614 15.1119C59.1643 15.1898 59.4154 15.3668 59.5929 15.4693C59.7715 15.5707 59.8699 15.6995 59.9212 15.8531C59.9749 16.0064 60.0989 16.1079 60.2881 16.2094C60.4707 16.3145 60.7326 16.6515 60.7326 17.1062C60.7326 17.176 60.7403 17.2356 60.7597 17.2989C60.773 17.3407 60.7911 17.3844 60.8159 17.434C61.0712 17.9554 60.8662 18.2179 60.7184 18.3286C60.5196 18.4793 60.1689 18.5416 59.8393 18.4871L59.842 18.5728L59.3608 18.5077C59.1743 18.4842 58.9284 18.5325 58.7815 18.5634L58.7469 18.5728C58.4043 18.6417 57.9563 18.5243 57.7046 18.1102C57.6954 18.0948 57.6861 18.0795 57.6775 18.0631C57.5491 17.8346 57.3491 17.6225 57.2512 17.5639C57.1099 17.6033 56.8867 17.6566 56.621 17.6292C56.3745 17.604 56.0901 17.5082 55.801 17.2655C55.7531 17.2252 55.7048 17.1806 55.657 17.1323C55.232 16.7005 54.6714 16.6121 54.319 16.6669L54.1088 16.7046C53.6751 16.7841 53.1333 16.8854 52.6328 16.5761C52.5082 16.4992 52.3286 16.4199 52.1525 16.3445C51.6982 16.1441 51.2285 15.9375 51.1645 15.5018C51.1537 15.4241 51.0706 15.2821 51.0024 15.1691C50.9424 15.0692 50.877 14.96 50.8265 14.8429C50.7778 14.7311 50.7428 14.6121 50.7395 14.4879C50.5908 14.5266 50.4371 14.5425 50.2837 14.535C50.2295 14.5322 50.1755 14.5268 50.1218 14.5188L49.9245 14.4879C49.5921 14.4304 48.8959 14.3145 48.6742 14.3965C48.2328 14.5578 46.8436 14.6357 46.4628 14.5474C46.4628 14.5474 46.3226 14.5163 46.1905 14.4879C46.0636 14.6205 45.9221 14.7449 45.7733 14.8558C46.0521 14.8711 46.2972 14.8361 46.4656 14.8801L46.8156 14.9736C46.9273 14.9401 47.2005 14.944 47.3556 14.9582L47.7656 14.9894L48.2332 15.0349C48.4585 15.0807 48.6977 15.1793 48.6567 15.6264C48.641 15.7643 48.5648 15.9593 48.4502 16.0738C48.3872 16.1439 48.1428 16.5029 48.0891 16.6158L48.0717 16.6511C47.9765 16.8566 47.8354 17.0453 47.4245 17.0453C47.3723 17.0446 47.3201 17.0466 47.2682 17.0515C47.2557 17.0852 47.222 17.1477 47.222 17.1477C47.1295 17.3608 46.9959 17.6574 46.7406 17.829L46.6723 17.8787C46.4674 18.0269 46.1259 18.2711 45.6031 18.0789L45.4232 18.0136C44.9675 17.8473 44.2784 17.5978 43.9306 17.4052L43.8818 17.3779C43.5578 17.1984 43.4861 17.1623 43.3684 17.1791L43.3031 17.1894C43.0546 17.2246 42.5863 17.2883 42.2625 16.7446L42.2329 16.6974C40.6976 18.832 38.3901 20.3599 35.7268 20.8587L35.7151 20.8612C35.6243 20.878 35.5328 20.8936 35.4413 20.9082L35.4072 20.9132L35.2821 20.9319C35.2334 20.9393 35.1846 20.946 35.1354 20.9522L35.0462 20.9635L34.9054 20.9789L34.8079 20.9892C34.7445 20.9952 34.6805 21.0007 34.6166 21.0056L34.5561 21.0097C34.4974 21.0137 34.4394 21.0176 34.3803 21.0208L34.3161 21.0243C34.2481 21.0276 34.1804 21.0301 34.1119 21.0322L34.0425 21.0334C33.8965 21.0371 33.7504 21.037 33.6043 21.033L33.539 21.0322C33.4736 21.0301 33.4082 21.0276 33.3429 21.0247L33.2629 21.0202C33.2077 21.0171 33.1525 21.0141 33.0973 21.0099L33.0272 21.0052C32.9619 21.0001 32.8966 20.9945 32.8314 20.9884L32.7349 20.9783L32.6071 20.9643L32.5357 20.9559C32.4686 20.9476 32.4016 20.9381 32.3348 20.9277L32.2539 20.9156L32.1108 20.893L32.0372 20.8805C31.9797 20.8702 31.9222 20.8601 31.8649 20.8488L31.7409 20.8237L31.6775 20.8106C31.5927 20.7919 31.5073 20.7734 31.4231 20.7528L31.4008 20.7475L31.2683 20.7148L31.2002 20.6971C31.1212 20.6764 31.0426 20.6542 30.9641 20.632L30.9361 20.6236C28.6008 19.9412 26.6053 18.4515 25.26 16.4727L25.0829 16.7457C24.7622 17.2895 24.2948 17.2256 24.0431 17.1906L23.9777 17.1802C23.8605 17.1635 23.7862 17.1995 23.4654 17.3791L23.4138 17.4064C23.0672 17.599 22.3808 17.8485 21.9226 18.0148L21.7423 18.08C21.2199 18.2723 20.8773 18.0277 20.6761 17.8798L20.6056 17.8302C20.3501 17.6588 20.2178 17.3622 20.124 17.1489C20.124 17.1489 20.0932 17.0864 20.0782 17.0527C20.0261 17.0478 19.9738 17.0457 19.9215 17.0464C19.5145 17.0464 19.3693 16.8577 19.2757 16.6522L19.2591 16.617C19.204 16.504 18.9627 16.1451 18.8959 16.075C18.7831 15.9606 18.7029 15.7655 18.6902 15.6276C18.6479 15.1804 18.8904 15.0819 19.1136 15.0361L19.5814 14.9905L19.9921 14.9594C20.1447 14.9452 20.4181 14.9413 20.5296 14.9748L20.8799 14.8813C21.0466 14.8373 21.2943 14.8723 21.5706 14.8569C21.4237 14.7442 21.2847 14.6213 21.1547 14.489C21.0211 14.5175 20.8823 14.5486 20.8823 14.5486C20.5002 14.6368 19.1136 14.5589 18.6748 14.3977C18.4518 14.3157 17.7562 14.4314 17.4222 14.489L17.2219 14.52C17.0175 14.5518 16.8088 14.5413 16.6085 14.489C16.598 14.7436 16.4618 14.9748 16.3451 15.1703C16.2773 15.2833 16.1913 15.4252 16.1809 15.503C16.121 15.9386 15.6455 16.1453 15.1925 16.3457C15.0166 16.4211 14.8397 16.5003 14.7141 16.5773C14.2173 16.8865 13.673 16.7853 13.2379 16.7058L13.0272 16.668C12.6767 16.6133 12.1157 16.7017 11.6898 17.1335C11.0386 17.7916 10.3906 17.6469 10.0955 17.5651C9.99784 17.6237 9.79654 17.8358 9.66906 18.0643C9.42296 18.5169 8.95287 18.6454 8.59872 18.574L8.56315 18.5646C8.41779 18.5336 8.17496 18.4853 7.98904 18.5089L7.50491 18.574L7.5101 18.4883C7.17883 18.5428 6.82698 18.4803 6.62741 18.3297C6.48071 18.2191 6.27517 17.9566 6.53473 17.4352C6.59491 17.3102 6.61548 17.2233 6.61548 17.1074C6.61548 16.6524 6.87524 16.3157 7.05751 16.2105C7.24862 16.1091 7.37436 16.0076 7.4255 15.8543C7.47569 15.7006 7.57413 15.5719 7.75293 15.4704C7.92982 15.368 8.1815 15.1909 8.38319 15.113C8.58449 15.0363 8.8627 14.957 9.0144 15.113C9.16725 15.2638 9.51737 15.5719 9.51737 15.5719C9.83864 15.3207 9.80788 15.031 9.97438 14.5498C10.1826 13.953 10.6808 14.1141 11.0042 14.1455L11.0413 14.1507C11.0413 14.1507 11.2157 14.1585 11.2208 14.1612C11.2299 14.156 11.2787 14.1326 11.2787 14.1326L11.3597 14.0896C11.3597 14.0896 11.8819 13.7789 11.8871 13.7764C11.8894 13.77 11.8894 13.7606 11.8894 13.7448C11.8894 13.7072 11.8767 13.6305 11.8061 13.5162C11.5739 13.152 11.4097 12.4306 11.3799 11.8235C11.296 11.8336 11.2151 11.842 11.1355 11.8484C9.87075 11.9513 9.11918 11.6272 8.67947 11.2098Z" fill="#EDEDED"/>
<path d="M11.793 11.38C11.793 11.38 11.6876 12.4133 12.1471 13.3238C12.1471 13.3238 12.4876 13.8126 12.1341 14.1266L11.4302 14.541C11.4302 14.541 11.3356 14.6123 11.0216 14.5882C11.0216 14.5882 10.5877 14.4793 10.4427 14.6735C10.4427 14.6735 10.3168 15.0468 10.1591 15.3546C10.1591 15.3546 9.83859 16.1005 9.30813 16.3395C9.30813 16.3395 8.88533 16.4376 8.75709 16.809C8.75709 16.809 8.62078 17.0696 8.34776 17.0811C8.34776 17.0811 8.14415 17.1466 8.00937 17.606C8.00937 17.606 7.93592 17.9032 7.93977 18.1311C7.93977 18.1311 8.287 18.0849 8.5133 18.1679C8.5133 18.1679 9.06972 18.3572 9.31851 17.8929C9.31851 17.8929 9.79918 17.0591 10.1556 17.1845C10.1556 17.1845 10.8716 17.4272 11.3773 16.8979C11.3773 16.8979 12.072 16.1291 13.0531 16.2873C13.0531 16.2873 14.1582 16.514 14.503 16.2557C14.503 16.2557 15.2 15.8866 15.4614 15.7951C15.4614 15.7951 15.7814 15.6999 15.8144 15.345C15.8144 15.345 16.009 14.8458 16.1505 14.6795L15.6233 14.6735C15.6233 14.6735 15.1459 15.4868 14.3348 15.732C14.3348 15.732 13.8912 15.9116 13.0008 15.7657C13.0008 15.7657 11.7224 15.4724 10.5996 16.7008C10.5996 16.7008 10.4462 16.9253 10.2272 16.8355C10.2272 16.8355 10.8476 15.7638 12.2098 15.5098C12.2098 15.5098 12.6557 15.4138 13.0275 15.4749C13.0275 15.4749 14.8623 15.5295 15.7131 13.6997C15.7131 13.6997 15.621 12.1396 16.0273 11.7702C16.0273 11.7702 16.1842 11.7215 16.1528 12.0231C16.1528 12.0231 15.8737 13.6574 16.398 13.9739C16.398 13.9739 16.7023 14.2162 17.2655 14.1266C17.2655 14.1266 18.1191 13.9199 18.813 14.0403C18.813 14.0403 19.8801 14.2968 20.797 14.1782C20.797 14.1782 20.559 13.8089 20.6057 13.3674C20.6057 13.3674 20.737 13.0513 20.8876 13.2546C20.8876 13.2546 21.2404 14.4353 22.2046 14.7896C22.2046 14.7896 23.0658 15.1072 23.0517 16.2137C23.0517 16.2137 22.9198 16.3654 21.778 16.7763C21.778 16.7763 21.3513 16.9128 21.2139 16.5899C21.2139 16.5899 20.6632 15.396 20.1839 15.4329L19.2839 15.5069C19.2839 15.5069 18.9768 15.5865 19.2029 15.8358C19.2029 15.8358 19.5111 16.2509 19.6371 16.4986C19.6371 16.4986 19.6738 16.7103 19.9634 16.6653C19.9634 16.6653 20.365 16.4637 20.5915 17.2206C20.5915 17.2206 20.7988 17.599 21.1496 17.7199C21.1496 17.7199 21.4778 17.831 21.7859 17.6559C21.7859 17.6559 23.2723 17.1031 23.5311 16.9072C23.5311 16.9072 23.8525 16.7249 24.1075 16.8125C24.1075 16.8125 24.5533 16.9202 24.737 16.5638L25.1976 15.8419C25.1976 15.8419 25.2988 15.664 25.2847 15.4406C25.2847 15.4406 25.3264 15.2194 25.1423 14.9944C25.1423 14.9944 24.9683 14.8081 24.9408 14.6731L24.6124 13.8913C24.6124 13.8913 24.4793 13.6825 24.3332 13.5966L23.8948 13.6292C23.8948 13.6292 24.1965 14.4102 24.4174 14.7284C24.4174 14.7284 24.7164 15.1915 24.7012 15.486C24.7012 15.486 24.6814 15.6925 24.601 15.7786C24.601 15.7786 24.4999 15.9425 24.4591 16.0222C24.4591 16.0222 24.3263 16.3143 24.2184 16.3792C24.2184 16.3792 24.0319 16.491 23.9865 16.4955C23.9865 16.4955 23.9054 16.5183 23.9656 16.371C23.9656 16.371 24.2113 15.8473 24.1951 15.5672C24.1951 15.5672 24.2428 15.2755 24.039 15.1047C24.039 15.1047 23.5614 14.341 23.493 14.1128C23.493 14.1128 23.3432 13.8074 23.2634 13.755C23.2634 13.755 23.0965 13.5328 23.3659 13.4287C23.3659 13.4287 24.0369 13.2753 24.1571 13.1919C24.1571 13.1919 24.4797 13.093 24.6893 12.4123C24.6893 12.4123 24.9779 11.6184 24.9736 11.1284C24.9736 11.1284 25.5393 12.2331 24.6372 13.3565C24.6372 13.3565 25.3511 13.5698 25.6464 13.3565C25.6464 13.3565 26.5356 13.2248 26.7073 13.1769C26.7073 13.1769 26.9309 13.1222 26.8032 13.2829C26.8032 13.2829 26.535 13.6693 26.5123 13.9225C26.5123 13.9225 26.495 14.124 26.332 14.2421C26.332 14.2421 25.8265 14.6006 25.7821 14.944C25.7821 14.944 25.6741 15.2745 25.8973 15.1954C25.8973 15.1954 26.1999 15.0535 26.3068 15.1964C26.3068 15.1964 26.3382 15.2114 26.2214 15.344C26.2214 15.344 25.9179 15.6116 25.8952 15.9708C25.8952 15.9708 25.9513 16.3852 26.0586 16.5185C26.0586 16.5185 26.1953 16.7105 26.4114 16.6495C26.4114 16.6495 26.4687 16.6026 26.5721 16.6341C26.5721 16.6341 26.679 16.6338 26.9582 16.536C26.9582 16.536 27.3814 16.4182 27.5229 16.3675C27.5229 16.3675 28.0616 16.1724 28.3273 16.186C28.3273 16.186 28.5002 16.1667 28.7205 16.2113C28.7205 16.2113 29.3942 16.2888 29.8432 15.7861C29.8432 15.7861 30.1848 15.5117 30.3008 15.7782C30.3008 15.7782 31.1204 16.8922 32.447 16.5987C32.447 16.5987 31.3915 16.1589 31.1177 15.56C31.1177 15.56 31.0812 15.0515 30.5282 14.3453C30.5282 14.3453 30.3592 14.111 30.5223 14.05C30.5223 14.05 30.6167 13.9786 30.8226 14.1879C30.8226 14.1879 31.3479 14.6984 31.5376 15.1656C31.5376 15.1656 32.19 16.1642 33.1302 15.8286C33.1302 15.8286 32.3921 15.5402 32.0452 15.0022C32.0452 15.0022 31.8308 14.2742 31.1102 13.7326C31.1102 13.7326 31.082 12.9144 30.7459 12.4545C30.7459 12.4545 30.5746 11.6862 30.5284 11.5066C30.5284 11.5066 30.3471 10.8318 30.3483 10.6454C30.3483 10.6454 30.4082 9.76391 29.8472 9.07776C29.8472 9.07776 29.4713 8.3437 28.8859 7.83226C28.8859 7.83226 28.441 7.27543 28.1101 6.93441C28.1101 6.93441 27.6748 6.41751 26.7258 5.74305C26.7258 5.74305 26.296 5.42656 25.9813 5.08631C25.9813 5.08631 24.3072 3.86573 23.0979 4.8448C23.0979 4.8448 22.2627 5.42032 21.5651 5.59853C21.5651 5.59853 20.1316 5.76759 19.5204 6.77548C19.5204 6.77548 19.4681 6.96167 18.8903 7.03257C18.8903 7.03257 17.6212 6.87734 16.6867 8.14174C16.6867 8.14174 16.2526 8.57099 15.3932 8.67538C15.3932 8.67538 13.9916 8.53009 13.0791 9.61862C13.0791 9.61862 10.7765 11.6533 9.40349 10.3338C9.40349 10.3338 8.69211 9.65153 9.50539 8.41616C9.50539 8.41616 10.0212 7.78552 10.9013 7.12664C10.9013 7.12664 11.6151 6.61714 11.2879 5.82504C11.2879 5.82504 11.1151 5.05963 10.0451 5.03937C10.0451 5.03937 8.70249 4.77664 8.15953 4.0899C8.15953 4.0899 7.55331 6.25274 9.93261 6.21671C9.93261 6.21671 10.5527 6.30961 10.3362 6.8082C10.3362 6.8082 10.0322 7.23473 9.62422 7.38995C9.62422 7.38995 8.90648 7.708 8.58213 8.76673C8.58213 8.76673 7.85728 10.6201 9.62575 11.3354C10.3064 11.5736 11.0926 11.5035 11.793 11.38ZM8.38813 15.7474C8.48407 15.6662 8.62462 15.6204 8.7494 15.65C9.03088 15.7114 8.86053 15.9583 8.86053 15.9583C8.74652 16.1743 8.37448 16.5387 8.37448 16.5387C8.04359 16.7898 7.78153 16.4908 7.78153 16.4908C7.53639 16.246 7.85536 16.1276 7.85536 16.1276C8.0409 16.0512 8.38813 15.7474 8.38813 15.7474ZM7.67867 16.9058C7.67867 16.9058 7.78153 16.9828 7.72654 17.1347C7.72654 17.1347 7.46391 17.8629 7.47621 18.1073C7.47621 18.1073 6.89499 18.2125 6.81443 17.9219C6.81443 17.9219 6.79886 17.8097 6.89364 17.6471C6.89364 17.6471 6.99228 17.4954 7.01785 17.2178C7.01785 17.2178 7.0092 16.5194 7.45583 16.7045C7.54447 16.7547 7.61445 16.8277 7.67867 16.9058ZM28.1647 15.428C28.0624 15.4255 28.0364 15.3875 28.0488 15.2733C28.1174 14.9561 28.3685 14.8192 28.3685 14.8192C28.8395 14.534 28.8968 14.8195 28.8968 14.8195C28.9832 15.3288 28.5858 15.3929 28.5858 15.3929C28.5063 15.4206 28.1647 15.428 28.1647 15.428ZM29.5857 13.1535C29.5944 12.9146 29.6144 12.3835 29.3746 12.1938C29.2862 12.1225 28.9363 11.7343 28.9363 11.7343C28.883 11.6402 28.842 11.6344 28.842 11.6344C28.7699 11.6274 28.6769 11.7972 28.6769 11.7972C28.4277 12.2843 28.1791 12.2249 28.1791 12.2249C28.177 12.1361 28.2356 12.037 28.2356 12.037C28.3559 11.8003 28.4751 11.5631 28.5931 11.3253C28.6294 11.2408 28.6629 11.1282 28.6629 11.1282C28.9034 10.7506 29.1301 11.038 29.1301 11.038C29.2312 11.2381 29.7705 11.8897 29.7705 11.8897C29.8901 12.0339 29.9016 12.1887 29.9016 12.1887C30.0266 13.0813 29.5857 13.1535 29.5857 13.1535ZM24.6185 7.76526C24.5449 7.63107 24.5753 7.49415 24.6493 7.36366C24.8162 7.10463 24.9721 7.38723 24.9721 7.38723C25.5483 8.20094 25.1228 9.41918 25.1228 9.41918C25.0636 8.29794 24.6185 7.76526 24.6185 7.76526ZM55.5567 11.38C55.5567 11.38 55.6621 12.4133 55.2026 13.3238C55.2026 13.3238 54.8621 13.8126 55.2157 14.1266L55.9197 14.541C55.9197 14.541 56.0141 14.6123 56.3283 14.5882C56.3283 14.5882 56.7621 14.4793 56.9068 14.6735C56.9068 14.6735 57.033 15.0468 57.1904 15.3546C57.1904 15.3546 57.5115 16.1005 58.042 16.3395C58.042 16.3395 58.4646 16.4376 58.5924 16.809C58.5924 16.809 58.7291 17.0696 59.0018 17.0811C59.0018 17.0811 59.2058 17.1466 59.3403 17.606C59.3403 17.606 59.414 17.9032 59.4103 18.1311C59.4103 18.1311 59.0629 18.0849 58.8364 18.1679C58.8364 18.1679 58.2802 18.3572 58.0314 17.8929C58.0314 17.8929 57.5507 17.0591 57.1943 17.1845C57.1943 17.1845 56.4785 17.4272 55.9726 16.8979C55.9726 16.8979 55.2781 16.1291 54.2968 16.2873C54.2968 16.2873 53.192 16.514 52.8471 16.2557C52.8471 16.2557 52.1502 15.8866 51.8887 15.7951C51.8887 15.7951 51.5685 15.6999 51.5359 15.345C51.5359 15.345 51.3411 14.8458 51.1996 14.6795L51.7266 14.6735C51.7266 14.6735 52.2038 15.4868 53.015 15.732C53.015 15.732 53.4589 15.9116 54.3489 15.7657C54.3489 15.7657 55.6275 15.4724 56.7503 16.7008C56.7503 16.7008 56.9039 16.9253 57.1226 16.8355C57.1226 16.8355 56.5025 15.7638 55.1401 15.5098C55.1401 15.5098 54.6944 15.4138 54.3222 15.4749C54.3222 15.4749 52.4874 15.5295 51.6362 13.6997C51.6362 13.6997 51.7287 12.1396 51.3224 11.7702C51.3224 11.7702 51.1659 11.7215 51.1967 12.0231C51.1967 12.0231 51.4757 13.6574 50.9518 13.9739C50.9518 13.9739 50.6472 14.2162 50.0841 14.1266C50.0841 14.1266 49.2306 13.9199 48.5369 14.0403C48.5369 14.0403 47.4694 14.2968 46.5525 14.1782C46.5525 14.1782 46.7907 13.8089 46.744 13.3674C46.744 13.3674 46.6125 13.0513 46.4619 13.2546C46.4619 13.2546 46.1091 14.4353 45.1447 14.7896C45.1447 14.7896 44.2836 15.1072 44.2976 16.2137C44.2976 16.2137 44.4299 16.3654 45.5719 16.7763C45.5719 16.7763 45.9988 16.9128 46.1362 16.5899C46.1362 16.5899 46.6863 15.396 47.1658 15.4329L48.0662 15.5069C48.0662 15.5069 48.3731 15.5865 48.1468 15.8358C48.1468 15.8358 47.839 16.2509 47.7126 16.4986C47.7126 16.4986 47.6763 16.7103 47.3866 16.6653C47.3866 16.6653 46.9849 16.4637 46.758 17.2206C46.758 17.2206 46.5512 17.599 46.2003 17.7199C46.2003 17.7199 45.8719 17.831 45.5641 17.6559C45.5641 17.6559 44.0776 17.1031 43.819 16.9072C43.819 16.9072 43.4974 16.7249 43.2426 16.8125C43.2426 16.8125 42.7971 16.9202 42.6135 16.5638L42.1529 15.8419C42.1529 15.8419 42.0513 15.664 42.0656 15.4406C42.0656 15.4406 42.0237 15.2194 42.208 14.9944C42.208 14.9944 42.3822 14.8081 42.4095 14.6731L42.7381 13.8913C42.7381 13.8913 42.8712 13.6825 43.0171 13.5966L43.4559 13.6292C43.4559 13.6292 43.1538 14.4102 42.9327 14.7284C42.9327 14.7284 42.6337 15.1915 42.6489 15.486C42.6489 15.486 42.6689 15.6925 42.7491 15.7786C42.7491 15.7786 42.8502 15.9425 42.8912 16.0222C42.8912 16.0222 43.0234 16.3143 43.1317 16.3792C43.1317 16.3792 43.318 16.491 43.3636 16.4955C43.3636 16.4955 43.4449 16.5183 43.3839 16.371C43.3839 16.371 43.139 15.8473 43.1546 15.5672C43.1546 15.5672 43.1073 15.2755 43.3107 15.1047C43.3107 15.1047 43.7887 14.341 43.8575 14.1128C43.8575 14.1128 44.0067 13.8074 44.0867 13.755C44.0867 13.755 44.2536 13.5328 43.9842 13.4287C43.9842 13.4287 43.3134 13.2753 43.1932 13.1919C43.1932 13.1919 42.8706 13.093 42.6608 12.4123C42.6608 12.4123 42.3724 11.6184 42.3765 11.1284C42.3765 11.1284 41.8108 12.2331 42.7131 13.3565C42.7131 13.3565 41.9992 13.5698 41.7039 13.3565C41.7039 13.3565 40.8149 13.2248 40.6426 13.1769C40.6426 13.1769 40.4196 13.1222 40.5469 13.2829C40.5469 13.2829 40.8149 13.6693 40.8379 13.9225C40.8379 13.9225 40.8549 14.124 41.0183 14.2421C41.0183 14.2421 41.5238 14.6006 41.5678 14.944C41.5678 14.944 41.676 15.2745 41.4526 15.1954C41.4526 15.1954 41.1502 15.0535 41.0433 15.1964C41.0433 15.1964 41.012 15.2114 41.1287 15.344C41.1287 15.344 41.4322 15.6116 41.4547 15.9708C41.4547 15.9708 41.3986 16.3852 41.2911 16.5185C41.2911 16.5185 41.1546 16.7105 40.9385 16.6495C40.9385 16.6495 40.8814 16.6026 40.7774 16.6341C40.7774 16.6341 40.6707 16.6338 40.3915 16.536C40.3915 16.536 39.9683 16.4182 39.8268 16.3675C39.8268 16.3675 39.2881 16.1724 39.0222 16.186C39.0222 16.186 38.8493 16.1667 38.629 16.2113C38.629 16.2113 37.9551 16.2888 37.5062 15.7861C37.5062 15.7861 37.1645 15.5117 37.0489 15.7782C37.0489 15.7782 36.2291 16.8922 34.9023 16.5987C34.9023 16.5987 35.9584 16.1589 36.232 15.56C36.232 15.56 36.2682 15.0515 36.8211 14.3453C36.8211 14.3453 36.9899 14.111 36.8269 14.05C36.8269 14.05 36.7327 13.9786 36.5266 14.1879C36.5266 14.1879 36.0019 14.6984 35.8119 15.1656C35.8119 15.1656 35.1592 16.1642 34.2194 15.8286C34.2194 15.8286 34.9571 15.5402 35.3039 15.0022C35.3039 15.0022 35.5183 14.2742 36.2395 13.7326C36.2395 13.7326 36.2676 12.9144 36.6039 12.4545C36.6039 12.4545 36.7754 11.6862 36.8211 11.5066C36.8211 11.5066 37.0022 10.8318 37.0011 10.6454C37.0011 10.6454 36.9411 9.76391 37.5023 9.07776C37.5023 9.07776 37.878 8.3437 38.464 7.83226C38.464 7.83226 38.9087 7.27543 39.2394 6.93441C39.2394 6.93441 39.6749 6.41751 40.624 5.74305C40.624 5.74305 41.0535 5.42656 41.368 5.08631C41.368 5.08631 43.0419 3.86573 44.2516 4.8448C44.2516 4.8448 45.0868 5.42032 45.7848 5.59853C45.7848 5.59853 47.2179 5.76759 47.8288 6.77548C47.8288 6.77548 47.8811 6.96167 48.4588 7.03257C48.4588 7.03257 49.728 6.87734 50.6626 8.14174C50.6626 8.14174 51.0967 8.57099 51.9563 8.67538C51.9563 8.67538 53.3572 8.53009 54.2697 9.61862C54.2697 9.61862 56.5725 11.6533 57.9456 10.3338C57.9456 10.3338 58.6566 9.65153 57.8436 8.41616C57.8436 8.41616 57.3279 7.78552 56.4481 7.12664C56.4481 7.12664 55.7336 6.61714 56.0612 5.82504C56.0612 5.82504 56.2341 5.05963 57.3041 5.03937C57.3041 5.03937 58.6466 4.77664 59.1894 4.0899C59.1894 4.0899 59.796 6.25274 57.4163 6.21671C57.4163 6.21671 56.7961 6.30961 57.0128 6.8082C57.0128 6.8082 57.3167 7.23473 57.7247 7.38995C57.7247 7.38995 58.4425 7.708 58.767 8.76673C58.767 8.76673 59.492 10.6201 57.7228 11.3354C57.0431 11.5736 56.2572 11.5035 55.5567 11.38ZM58.9618 15.7474C58.8656 15.6662 58.7251 15.6204 58.6007 15.65C58.3188 15.7114 58.4894 15.9583 58.4894 15.9583C58.6036 16.1743 58.9756 16.5387 58.9756 16.5387C59.3069 16.7898 59.5686 16.4908 59.5686 16.4908C59.8133 16.246 59.4942 16.1276 59.4942 16.1276C59.309 16.0512 58.9618 15.7474 58.9618 15.7474ZM59.6709 16.9058C59.6709 16.9058 59.5686 16.9828 59.623 17.1347C59.623 17.1347 59.8856 17.8629 59.8735 18.1073C59.8735 18.1073 60.4551 18.2125 60.5351 17.9219C60.5351 17.9219 60.5507 17.8097 60.4561 17.6471C60.4561 17.6471 60.3574 17.4954 60.3319 17.2178C60.3319 17.2178 60.3407 16.5194 59.8941 16.7045C59.8052 16.7547 59.7353 16.8277 59.6709 16.9058ZM39.1848 15.428C39.2873 15.4255 39.3137 15.3875 39.301 15.2733C39.2321 14.9561 38.9814 14.8192 38.9814 14.8192C38.5104 14.534 38.4529 14.8195 38.4529 14.8195C38.3669 15.3288 38.7642 15.3929 38.7642 15.3929C38.8436 15.4206 39.1848 15.428 39.1848 15.428ZM37.7642 13.1535C37.7553 12.9146 37.7351 12.3835 37.9753 12.1938C38.0641 12.1225 38.4137 11.7343 38.4137 11.7343C38.4669 11.6402 38.5079 11.6344 38.5079 11.6344C38.5796 11.6274 38.6732 11.7972 38.6732 11.7972C38.922 12.2843 39.171 12.2249 39.171 12.2249C39.1729 12.1361 39.1139 12.037 39.1139 12.037C38.9937 11.8004 38.8746 11.5631 38.7567 11.3253C38.7303 11.2608 38.707 11.195 38.6869 11.1282C38.4463 10.7506 38.2199 11.038 38.2199 11.038C38.1187 11.2381 37.5796 11.8897 37.5796 11.8897C37.5083 11.9745 37.4625 12.0783 37.4479 12.1887C37.3235 13.0813 37.7642 13.1535 37.7642 13.1535ZM42.7312 7.76526C42.8048 7.63107 42.7745 7.49415 42.7004 7.36366C42.5336 7.10463 42.378 7.38723 42.378 7.38723C41.8016 8.20094 42.2271 9.41918 42.2271 9.41918C42.2859 8.29794 42.7312 7.76526 42.7312 7.76526Z" fill="#B3B3B3"/>
<path d="M0.214355 24.6277V39.5545H3.18776V27.4765H4.58862C4.58862 27.4765 6.77546 27.3768 6.77546 29.3934C6.77546 31.4099 4.83395 31.3597 4.83395 31.3597H4.12122V34.7955L7.0952 39.5549H10.5843L6.43149 33.4516C6.43149 33.4516 9.8473 33.1529 9.8473 29.3938C9.8473 25.6352 7.26689 24.6283 3.82685 24.6283L0.214355 24.6277ZM43.687 31.6096C43.687 31.6096 44.989 30.5836 44.989 28.6393C44.989 26.694 43.5943 24.9403 40.6246 24.9403H35.651V39.5547H41.777C41.777 39.5547 46.1678 39.5043 46.1678 35.4849C46.168 33.1517 45.2738 32.2581 43.687 31.6096ZM41.2908 37.0111H38.6248V27.4886H40.0497C40.0497 27.4886 41.9862 27.3414 41.9862 29.0527C41.9862 30.7641 40.4458 30.6132 40.4458 30.6132H39.5585V33.1786H41.2902C41.7442 33.1786 43.1904 33.4016 43.1904 35.0874C43.1902 36.7729 41.2908 37.0111 41.2908 37.0111ZM62.4372 24.3342H65.2143V39.5547H62.4372V24.3342ZM57.6579 24.3342H60.4715V39.5547H57.6579V24.3342ZM47.0048 30.6385H49.8549V35.7413C49.8549 35.7413 49.9541 37.4596 51.5509 37.4596C53.1477 37.4596 53.124 35.7413 53.124 35.7413V30.6626H55.9986V35.9161C55.9986 35.9161 56.3676 40.0235 51.6244 40.0235C46.8817 40.0235 47.0048 36.414 47.0048 35.7668V30.6385ZM28.1071 24.3342V31.2362C28.1071 31.2362 26.7308 30.166 25.1571 30.166C23.585 30.166 20.9309 31.2861 20.9309 34.8206C20.9309 38.3553 23.192 39.7004 25.1331 39.7004C27.0748 39.7004 28.1561 38.4056 28.1561 38.4056V39.5551H30.957V24.3344L28.1071 24.3342ZM25.9441 37.21C25.7964 37.21 23.9533 37.2351 23.9533 34.9451C23.9533 32.6545 25.9683 32.5799 25.9683 32.5799C25.9683 32.5799 28.2295 32.6545 28.2295 34.895C28.2295 37.1356 26.0913 37.21 25.9441 37.21ZM15.3277 30.1656C20.0951 30.1656 19.8984 34.8707 19.8984 34.8707V35.617H13.4356C13.4356 36.687 14.32 37.6084 15.5244 37.6084C16.7283 37.6084 17.3428 36.4385 17.3428 36.4385L19.6279 37.5833C18.5714 39.202 17.1461 39.8486 15.549 39.8486C10.5846 39.8486 10.4864 35.6669 10.4864 35.1443C10.4864 34.6212 10.5606 30.1656 15.3277 30.1656ZM13.4844 33.899H17.0237C17.0237 33.899 16.8762 32.2069 15.2788 32.2069C13.6815 32.2067 13.4844 33.899 13.4844 33.899Z" fill="#B3B3B3"/>
</g>
<defs>
<clipPath id="clip0_20_161">
<rect width="65" height="40" fill="white" transform="translate(0.214355)"/>
</clipPath>
</defs>
</svg>
