<svg width="28" height="28" viewBox="0 0 28 28" fill="none" xmlns="http://www.w3.org/2000/svg">
<path d="M19.4891 12.9594C19.3 9.47493 17.396 7.48006 14.1991 7.45964C12.2723 7.44777 10.6605 8.26454 9.67422 9.76108L11.4325 10.9672C12.1721 9.84494 13.3397 9.61351 14.1857 9.62132C15.2384 9.62803 16.0327 9.9341 16.5469 10.531C16.9209 10.9655 17.1712 11.5659 17.2951 12.3237C16.3619 12.1652 15.3525 12.1164 14.2734 12.1783C11.2339 12.3534 9.2798 14.1261 9.41104 16.5893C9.47764 17.8388 10.1001 18.9138 11.1637 19.616C12.063 20.2096 13.2212 20.4998 14.425 20.4342C16.0147 20.347 17.2617 19.7406 18.1317 18.6315C18.7924 17.7893 19.2103 16.6979 19.3948 15.3228C20.1525 15.78 20.7139 16.3816 21.024 17.1048C21.5512 18.3343 21.582 20.3547 19.9335 22.0018C18.4892 23.4447 16.7529 24.069 14.1291 24.0883C11.2185 24.0667 9.01728 23.1332 7.58612 21.3138C6.24594 19.6103 5.55333 17.1495 5.52749 14C5.55333 10.8504 6.24594 8.3897 7.58612 6.68607C9.01728 4.86671 11.2185 3.93331 14.129 3.91168C17.0607 3.93348 19.3004 4.87138 20.7862 6.69951C21.5149 7.596 22.0642 8.72341 22.4263 10.0379L24.4868 9.4882C24.0477 7.87018 23.3571 6.47591 22.4171 5.3196C20.5122 2.97585 17.7117 1.7749 14.1219 1.75C10.5393 1.77481 7.78442 2.98033 5.93366 5.33303C4.28676 7.42665 3.43723 10.357 3.40869 14.0086C3.43723 17.6602 4.28676 20.5733 5.93366 22.667C7.78442 25.0196 10.5537 26.2253 14.1362 26.25C17.3213 26.2279 19.5663 25.394 21.4159 23.5462C23.8356 21.1287 23.7627 18.0985 22.9652 16.2382C22.3526 14.81 21.1329 13.665 19.4891 12.9594ZM14.3112 18.2756C12.979 18.3506 11.595 17.7527 11.5267 16.4719C11.4761 15.5223 12.2026 14.4627 14.3929 14.3365C15.4691 14.2744 16.4659 14.3472 17.3483 14.5402C17.0959 17.6923 15.6154 18.2041 14.3112 18.2756Z" fill="white"/>
</svg>
