<svg width="26" height="26" viewBox="0 0 26 26" fill="none" xmlns="http://www.w3.org/2000/svg">
<path d="M18.0973 12.0338C17.9217 8.79815 16.1537 6.94577 13.1852 6.92681C11.3961 6.91578 9.89934 7.67421 8.98352 9.06386L10.6162 10.1838C11.303 9.14173 12.3872 8.92683 13.1727 8.93409C14.1502 8.94032 14.8879 9.22452 15.3653 9.77874C15.7126 10.1822 15.945 10.7398 16.06 11.4435C15.1935 11.2962 14.2562 11.251 13.2542 11.3084C10.4318 11.471 8.61727 13.1171 8.73914 15.4044C8.80098 16.5646 9.379 17.5628 10.3666 18.2148C11.2017 18.766 12.2771 19.0356 13.3949 18.9746C14.8711 18.8937 16.029 18.3305 16.8369 17.3007C17.4504 16.5187 17.8384 15.5052 18.0098 14.2283C18.7133 14.6528 19.2346 15.2115 19.5226 15.8831C20.0121 17.0247 20.0407 18.9008 18.51 20.4303C17.1688 21.7701 15.5566 22.3498 13.1202 22.3677C10.4175 22.3477 8.3735 21.4809 7.04457 19.7914C5.80012 18.2095 5.15698 15.9246 5.13298 13C5.15698 10.0754 5.80012 7.79043 7.04457 6.2085C8.3735 4.51909 10.4175 3.65236 13.1201 3.63228C15.8424 3.65251 17.9221 4.52343 19.3018 6.22098C19.9785 7.05343 20.4885 8.10031 20.8247 9.32094L22.738 8.81047C22.3304 7.30803 21.689 6.01335 20.8162 4.93963C19.0473 2.76329 16.4469 1.64812 13.1135 1.625C9.78683 1.64804 7.2287 2.76745 5.51014 4.9521C3.98088 6.89617 3.19203 9.6172 3.16553 13.008C3.19203 16.3987 3.98088 19.1038 5.51014 21.048C7.2287 23.2325 9.80017 24.352 13.1268 24.375C16.0844 24.3545 18.1691 23.5802 19.8865 21.8644C22.1334 19.6195 22.0657 16.8058 21.3251 15.0784C20.7563 13.7522 19.6238 12.689 18.0973 12.0338ZM13.2893 16.9702C12.0522 17.0399 10.7671 16.4847 10.7037 15.2954C10.6567 14.4135 11.3313 13.4297 13.3651 13.3124C14.3645 13.2548 15.2901 13.3224 16.1094 13.5016C15.8751 16.4285 14.5004 16.9038 13.2893 16.9702Z" fill="#1D0A5B"/>
</svg>
