<svg width="20" height="20" viewBox="0 0 20 20" fill="none" xmlns="http://www.w3.org/2000/svg">
<path d="M7.95817 9.58335C6.92264 9.58335 6.08317 8.74385 6.08317 7.70835C6.08317 6.67282 6.92264 5.83335 7.95817 5.83335C8.99367 5.83335 9.83317 6.67282 9.83317 7.70835C9.83317 8.74385 8.99367 9.58335 7.95817 9.58335ZM8.33317 16.4567V13.6667C8.33317 13.2597 8.45334 12.8856 8.66992 12.552C8.42375 12.5178 8.17218 12.5 7.9165 12.5C6.60984 12.5 5.41125 12.9627 4.4756 13.7331C5.37408 15.0601 6.73811 16.0461 8.33317 16.4567ZM3.71055 12.2167C4.88677 11.3474 6.34161 10.8334 7.9165 10.8334C8.78609 10.8334 9.61909 10.99 10.3888 11.2768C11.1204 10.9907 11.9935 10.8334 12.9165 10.8334C14.2996 10.8334 15.5706 11.1866 16.4215 11.7969C16.5812 11.2253 16.6665 10.6226 16.6665 10C16.6665 6.31812 13.6818 3.33335 9.99984 3.33335C6.31794 3.33335 3.33317 6.31812 3.33317 10C3.33317 10.7771 3.46614 11.5232 3.71055 12.2167ZM15.7327 13.4049C15.405 12.9605 14.3088 12.5 12.9165 12.5C11.2448 12.5 9.99984 13.1639 9.99984 13.6667V16.6667C12.4378 16.6667 14.5701 15.358 15.7327 13.4049ZM9.99984 18.3334C5.39746 18.3334 1.6665 14.6024 1.6665 10C1.6665 5.39764 5.39746 1.66669 9.99984 1.66669C14.6022 1.66669 18.3332 5.39764 18.3332 10C18.3332 14.6024 14.6022 18.3334 9.99984 18.3334ZM12.9165 10.4167C11.996 10.4167 11.2498 9.67052 11.2498 8.75002C11.2498 7.82954 11.996 7.08335 12.9165 7.08335C13.837 7.08335 14.5832 7.82954 14.5832 8.75002C14.5832 9.67052 13.837 10.4167 12.9165 10.4167Z" fill="#1D0A5B"/>
</svg>
