<svg width="132" height="56" viewBox="0 0 132 56" fill="none" xmlns="http://www.w3.org/2000/svg">
<path d="M19.9983 16.3089H15.2677C14.8001 15.4456 14.1543 14.7901 13.3302 14.3426C12.5101 13.8911 11.5513 13.6653 10.4538 13.6653C9.24143 13.6653 8.16375 13.9386 7.22079 14.4851C6.28179 15.0356 5.54882 15.8198 5.02187 16.8377C4.49096 17.8555 4.2255 19.0298 4.2255 20.3605C4.2255 21.7308 4.49492 22.9229 5.03375 23.9368C5.57259 24.9546 6.32141 25.7388 7.28022 26.2893C8.23903 26.8358 9.35633 27.1091 10.6321 27.1091C12.1971 27.1091 13.4788 26.6933 14.4772 25.8616C15.4757 25.0299 16.1314 23.8714 16.4444 22.3863H9.39595V19.2436H20.4975V22.8259C20.2242 24.2516 19.6358 25.5724 18.7325 26.7883C17.8331 28.0002 16.6742 28.9725 15.2558 29.7052C13.8374 30.4418 12.2466 30.8102 10.4835 30.8102C8.50647 30.8102 6.7196 30.3646 5.1229 29.4735C3.5262 28.5824 2.2742 27.3448 1.3669 25.7606C0.455633 24.1764 0 22.3764 0 20.3605C0 18.3446 0.455633 16.5386 1.3669 14.9426C2.2742 13.3465 3.5262 12.1049 5.1229 11.2178C6.7196 10.3267 8.49656 9.8811 10.4538 9.8811C12.7637 9.8811 14.7704 10.4435 16.4741 11.5683C18.1778 12.693 19.3525 14.2733 19.9983 16.3089Z" fill="white"/>
<path d="M26.9861 16.8969C27.5131 16.0336 28.2025 15.3583 29.0543 14.8712C29.9061 14.3801 30.8808 14.1345 31.9783 14.1345V18.4534H30.8907C29.5991 18.4534 28.6244 18.7564 27.9667 19.3623C27.313 19.9683 26.9861 21.0237 26.9861 22.5287V30.6318H22.8735V14.3721H26.9861V16.8969Z" fill="white"/>
<path d="M42.602 30.8931C41.037 30.8931 39.6285 30.5466 38.3765 29.8535C37.1245 29.1604 36.1399 28.1782 35.4228 26.9069C34.7096 25.6317 34.353 24.1623 34.353 22.4989C34.353 20.8355 34.7195 19.3682 35.4525 18.0969C36.1894 16.8256 37.1938 15.8434 38.4656 15.1503C39.7374 14.4533 41.1558 14.1047 42.7208 14.1047C44.2858 14.1047 45.7062 14.4533 46.982 15.1503C48.2538 15.8434 49.2562 16.8256 49.9892 18.0969C50.7221 19.3682 51.0886 20.8355 51.0886 22.4989C51.0886 24.1623 50.7122 25.6317 49.9594 26.9069C49.2067 28.1782 48.1884 29.1604 46.9047 29.8535C45.625 30.5466 44.1907 30.8931 42.602 30.8931ZM42.602 27.3168C43.3468 27.3168 44.0481 27.1347 44.7058 26.7703C45.3595 26.4099 45.8825 25.8673 46.2748 25.1425C46.667 24.4178 46.8631 23.5366 46.8631 22.4989C46.8631 20.9544 46.457 19.7662 45.6448 18.9345C44.8326 18.1028 43.8381 17.687 42.6614 17.687C41.4886 17.687 40.5061 18.1028 39.7136 18.9345C38.9212 19.7662 38.525 20.9544 38.525 22.4989C38.525 24.0475 38.9113 25.2376 39.6839 26.0693C40.4565 26.901 41.4292 27.3168 42.602 27.3168Z" fill="white"/>
<path d="M73.9024 14.3723H77.8426L73.0822 30.632H68.6487L65.6832 19.2734L62.7176 30.632H58.2544L53.4702 14.3723H57.6363L60.5127 26.7587L63.6269 14.3723H67.9712L71.026 26.729L73.9024 14.3723Z" fill="white"/>
<path d="M89.9371 17.7467H86.294V25.6122C86.294 26.1588 86.4267 26.5548 86.6922 26.8004C86.9576 27.0459 87.4034 27.1687 88.0294 27.1687H89.9371V30.6321H87.3519C83.8891 30.6321 82.1576 28.9489 82.1576 25.5825V17.7467H80.2202V14.3724H82.1576V10.3506H86.294V14.3724H89.9371V17.7467Z" fill="white"/>
<path d="M101.473 14.1345C102.709 14.1345 103.806 14.4038 104.765 14.9424C105.724 15.481 106.473 16.2731 107.012 17.3187C107.55 18.3682 107.82 19.6256 107.82 21.091V30.6318H103.707V21.6494C103.707 20.3583 103.384 19.3662 102.739 18.6732C102.093 17.9761 101.211 17.6276 100.094 17.6276C98.9608 17.6276 98.0653 17.9761 97.4076 18.6732C96.7539 19.3662 96.427 20.3583 96.427 21.6494V30.6318H92.3145V8.9126H96.427V16.3979C96.954 15.6929 97.6572 15.1384 98.5368 14.7345C99.4203 14.3345 100.399 14.1345 101.473 14.1345Z" fill="white"/>
<path d="M110.195 7.12883L131.673 0V39.8071L110.195 32.6783V7.12883Z" fill="white"/>
<path d="M129.892 30.632H125.161L120.728 23.7349L116.704 30.632H112.069L118.529 20.3012L111.979 10.1426H116.704L121.138 17.01L125.131 10.1426H129.773L123.343 20.4437L129.892 30.632Z" fill="#1D0A5B"/>
<path d="M131.621 42.1833H0.0512695V56H131.621V42.1833Z" fill="white"/>
<path d="M3.02295 54.61V43.5763H5.78599C7.48776 43.5763 8.78279 44.0483 9.67107 44.9923C10.5594 45.927 11.0035 47.2776 11.0035 49.0441C11.0035 49.9133 10.8913 50.6938 10.6669 51.3854C10.4425 52.0771 10.1105 52.6612 9.67107 53.1379C9.2316 53.6146 8.69396 53.9791 8.05813 54.2315C7.41295 54.4838 6.67895 54.61 5.85612 54.61H3.02295ZM4.42551 53.4604H5.68781C6.97816 53.4604 7.94593 53.0772 8.5911 52.3107C9.23628 51.535 9.55887 50.4461 9.55887 49.0441C9.55887 47.6421 9.23628 46.5719 8.5911 45.8335C7.94593 45.0858 6.97816 44.7119 5.68781 44.7119H4.42551V53.4604ZM23.1917 54.61V43.5763H29.5593V44.7539H24.5943V48.2169H28.7739V49.4086H24.5943V53.4183H29.7276V54.61H23.1917ZM41.2426 49.0861C41.2426 48.2076 41.3642 47.4131 41.6073 46.7027C41.8598 45.9924 42.201 45.3942 42.6312 44.9082C43.0706 44.4128 43.5896 44.0343 44.188 43.7725C44.7958 43.5015 45.4503 43.366 46.1516 43.366C46.8248 43.366 47.4139 43.5062 47.9188 43.7866C48.4237 44.0576 48.8398 44.3754 49.1671 44.7399L48.3816 45.6232C48.0824 45.3148 47.7599 45.0671 47.4139 44.8801C47.0586 44.6932 46.6425 44.5997 46.1656 44.5997C45.642 44.5997 45.1651 44.7025 44.735 44.9082C44.3142 45.1138 43.9496 45.4129 43.641 45.8055C43.3418 46.1887 43.108 46.656 42.9397 47.2075C42.7714 47.7589 42.6873 48.3758 42.6873 49.0581C42.6873 49.7498 42.7668 50.376 42.9257 50.9368C43.094 51.4882 43.3231 51.9602 43.613 52.3528C43.9028 52.7454 44.2581 53.0491 44.6789 53.2641C45.0997 53.4791 45.5765 53.5866 46.1095 53.5866C46.6425 53.5866 47.11 53.4791 47.5121 53.2641C47.9048 53.0491 48.2835 52.7454 48.6481 52.3528L49.4336 53.208C48.9941 53.7127 48.5032 54.1053 47.9609 54.3857C47.4092 54.6661 46.7781 54.8063 46.0674 54.8063C45.3755 54.8063 44.735 54.6801 44.1459 54.4278C43.5569 54.1661 43.0473 53.7922 42.6171 53.3062C42.1777 52.8201 41.8411 52.222 41.6073 51.5116C41.3642 50.7919 41.2426 49.9834 41.2426 49.0861ZM64.8898 54.8063C64.1978 54.8063 63.562 54.6755 62.9823 54.4137C62.4026 54.1427 61.907 53.7548 61.4956 53.2501C61.0748 52.7547 60.7522 52.1519 60.5278 51.4415C60.294 50.7312 60.1772 49.932 60.1772 49.0441C60.1772 48.1561 60.294 47.3617 60.5278 46.6607C60.7522 45.9597 61.0748 45.3662 61.4956 44.8801C61.907 44.3941 62.4026 44.0202 62.9823 43.7585C63.562 43.4968 64.1978 43.366 64.8898 43.366C65.591 43.366 66.2269 43.5015 66.7972 43.7725C67.377 44.0343 67.8772 44.4081 68.298 44.8942C68.7187 45.3802 69.046 45.9737 69.2798 46.6747C69.5042 47.3757 69.6164 48.1655 69.6164 49.0441C69.6164 49.932 69.5042 50.7312 69.2798 51.4415C69.046 52.1519 68.7187 52.7547 68.298 53.2501C67.8772 53.7548 67.377 54.1427 66.7972 54.4137C66.2269 54.6755 65.591 54.8063 64.8898 54.8063ZM64.8898 53.5866C65.3853 53.5866 65.8341 53.4791 66.2362 53.2641C66.6289 53.0491 66.9702 52.7454 67.2601 52.3528C67.5406 51.9509 67.7603 51.4742 67.9193 50.9228C68.0782 50.362 68.1577 49.7357 68.1577 49.0441C68.1577 48.3618 68.0782 47.7449 67.9193 47.1934C67.7603 46.642 67.5406 46.1746 67.2601 45.7914C66.9702 45.4082 66.6289 45.1138 66.2362 44.9082C65.8341 44.7025 65.3853 44.5997 64.8898 44.5997C64.3942 44.5997 63.95 44.7025 63.5573 44.9082C63.1553 45.1138 62.814 45.4082 62.5335 45.7914C62.2436 46.1746 62.0192 46.642 61.8602 47.1934C61.7013 47.7449 61.6218 48.3618 61.6218 49.0441C61.6218 49.7357 61.7013 50.362 61.8602 50.9228C62.0192 51.4742 62.2436 51.9509 62.5335 52.3528C62.814 52.7454 63.1553 53.0491 63.5573 53.2641C63.95 53.4791 64.3942 53.5866 64.8898 53.5866ZM81.8186 54.61V43.5763H84.5676C86.2788 43.5763 87.5785 44.0483 88.4667 44.9923C89.3457 45.927 89.7851 47.2776 89.7851 49.0441C89.7851 49.9133 89.6729 50.6938 89.4485 51.3854C89.2241 52.0771 88.8969 52.6612 88.4667 53.1379C88.0273 53.6146 87.485 53.9791 86.8398 54.2315C86.2039 54.4838 85.4699 54.61 84.6378 54.61H81.8186ZM83.2072 53.4604H84.4695C85.7598 53.4604 86.7276 53.0772 87.3727 52.3107C88.0179 51.535 88.3405 50.4461 88.3405 49.0441C88.3405 47.6421 88.0179 46.5719 87.3727 45.8335C86.7276 45.0858 85.7598 44.7119 84.4695 44.7119H83.2072V53.4604ZM101.987 54.61V43.5763H108.341V44.7539H103.376V48.2169H107.57V49.4086H103.376V53.4183H108.509V54.61H101.987ZM120.669 54.61V43.5763H123.432C125.134 43.5763 126.429 44.0483 127.318 44.9923C128.206 45.927 128.65 47.2776 128.65 49.0441C128.65 49.9133 128.538 50.6938 128.313 51.3854C128.089 52.0771 127.757 52.6612 127.318 53.1379C126.878 53.6146 126.34 53.9791 125.705 54.2315C125.059 54.4838 124.325 54.61 123.503 54.61H120.669ZM122.072 53.4604H123.334C124.625 53.4604 125.592 53.0772 126.238 52.3107C126.883 51.535 127.205 50.4461 127.205 49.0441C127.205 47.6421 126.883 46.5719 126.238 45.8335C125.592 45.0858 124.625 44.7119 123.334 44.7119H122.072V53.4604Z" fill="#1D0A5B"/>
</svg>
