<svg width="115" height="26" viewBox="0 0 115 26" fill="none" xmlns="http://www.w3.org/2000/svg">
<g clip-path="url(#clip0_20_166)">
<path d="M63.7264 0.364H70.7314L67.203 25.636H60.198L63.7264 0.364ZM54.8534 0.364L50.1315 14.924L48.056 0.364H43.1265L36.8998 14.872L36.1734 0.416H29.3241L31.7109 25.688H37.3668L44.32 9.672L46.7587 25.636H52.3109L61.4952 0.364H54.8534ZM113.851 15.08H97.1948C97.2986 18.356 99.2185 20.54 102.124 20.54C104.304 20.54 106.016 19.396 107.365 17.16L113.021 19.708C110.997 23.504 106.95 26 101.917 26C95.0673 26 90.5011 21.372 90.5011 13.936C90.5011 5.772 95.8457 0 103.421 0C110.063 0 114.214 4.472 114.214 11.492C114.214 12.636 114.111 13.832 113.851 15.08ZM107.573 10.244C107.573 7.332 105.912 5.46 103.318 5.46C100.619 5.46 98.3363 7.384 97.7656 10.244H107.573ZM7.37503 8.008L0.214355 16.38H13.0309L14.4838 12.428H8.98359L12.3564 8.528V8.424L10.177 4.68H19.984L12.3564 25.636H17.5453L26.7296 0.364H3.01636L7.37503 8.008ZM82.147 5.46C84.6377 5.46 86.817 6.812 88.685 9.1L89.6709 1.976C87.9067 0.78 85.5198 0.052 82.3546 0.052C76.076 0.052 72.5475 3.744 72.5475 8.424C72.5475 11.648 74.3637 13.676 77.3213 14.924L78.7223 15.548C81.3687 16.692 82.0951 17.264 82.0951 18.46C82.0951 19.708 80.9017 20.488 79.0855 20.488C76.076 20.488 73.6372 18.98 71.8211 16.328L70.7833 23.608C72.8589 25.22 75.5571 26.052 79.0855 26.052C85.0528 26.052 88.7369 22.62 88.7369 17.784C88.7369 14.508 87.284 12.428 83.6518 10.764L82.0951 10.036C79.9158 9.1 79.1893 8.528 79.1893 7.488C79.2412 6.344 80.2271 5.46 82.147 5.46Z" fill="#B3B3B3"/>
</g>
<defs>
<clipPath id="clip0_20_166">
<rect width="114" height="26" fill="white" transform="translate(0.214355)"/>
</clipPath>
</defs>
</svg>
